{"glyphs":{"0":{"ha":694,"x_min":87,"x_max":608,"o":"m 260 174 l 260 260 l 434 260 l 434 174 l 260 174 m 174 260 l 174 347 l 260 347 l 260 260 l 174 260 m 434 260 l 434 347 l 521 347 l 521 260 l 434 260 m 260 347 l 260 608 l 347 608 l 347 347 l 260 347 m 87 347 l 87 868 l 174 868 l 174 347 l 87 347 m 347 608 l 347 868 l 434 868 l 434 608 l 347 608 m 521 347 l 521 868 l 608 868 l 608 347 l 521 347 m 174 868 l 174 955 l 260 955 l 260 868 l 174 868 m 434 868 l 434 955 l 521 955 l 521 868 l 434 868 m 260 955 l 260 1042 l 434 1042 l 434 955 l 260 955 z "},"1":{"ha":521,"x_min":87,"x_max":521,"o":"m 87 781 l 87 868 l 174 868 l 174 781 l 87 781 m 87 174 l 87 260 l 260 260 l 260 868 l 174 868 l 174 955 l 260 955 l 260 1042 l 347 1042 l 347 260 l 521 260 l 521 174 l 87 174 z "},"2":{"ha":694,"x_min":87,"x_max":608,"o":"m 87 174 l 87 347 l 174 347 l 174 260 l 608 260 l 608 174 l 87 174 m 174 347 l 174 434 l 260 434 l 260 347 l 174 347 m 260 434 l 260 521 l 347 521 l 347 434 l 260 434 m 347 521 l 347 608 l 434 608 l 434 521 l 347 521 m 434 608 l 434 694 l 521 694 l 521 608 l 434 608 m 521 694 l 521 868 l 608 868 l 608 694 l 521 694 m 87 868 l 87 955 l 174 955 l 174 868 l 87 868 m 434 868 l 434 955 l 521 955 l 521 868 l 434 868 m 174 955 l 174 1042 l 434 1042 l 434 955 l 174 955 z "},"3":{"ha":608,"x_min":87,"x_max":521,"o":"m 174 174 l 174 260 l 434 260 l 434 174 l 174 174 m 87 260 l 87 347 l 174 347 l 174 260 l 87 260 m 434 260 l 434 608 l 521 608 l 521 260 l 434 260 m 174 608 l 174 694 l 434 694 l 434 608 l 174 608 m 87 868 l 87 955 l 174 955 l 174 868 l 87 868 m 434 694 l 434 955 l 521 955 l 521 694 l 434 694 m 174 955 l 174 1042 l 434 1042 l 434 955 l 174 955 z "},"4":{"ha":608,"x_min":87,"x_max":608,"o":"m 347 174 l 347 347 l 87 347 l 87 1042 l 174 1042 l 174 434 l 347 434 l 347 694 l 434 694 l 434 434 l 608 434 l 608 347 l 434 347 l 434 174 l 347 174 z "},"5":{"ha":608,"x_min":87,"x_max":521,"o":"m 174 174 l 174 260 l 434 260 l 434 174 l 174 174 m 87 260 l 87 347 l 174 347 l 174 260 l 87 260 m 434 260 l 434 608 l 521 608 l 521 260 l 434 260 m 347 608 l 347 694 l 434 694 l 434 608 l 347 608 m 87 694 l 87 1042 l 521 1042 l 521 955 l 174 955 l 174 781 l 347 781 l 347 694 l 87 694 z "},"6":{"ha":694,"x_min":87,"x_max":608,"o":"m 260 174 l 260 260 l 434 260 l 434 174 l 260 174 m 174 260 l 174 347 l 260 347 l 260 260 l 174 260 m 434 260 l 434 347 l 521 347 l 521 260 l 434 260 m 521 347 l 521 521 l 608 521 l 608 347 l 521 347 m 434 521 l 434 608 l 521 608 l 521 521 l 434 521 m 260 608 l 260 694 l 434 694 l 434 608 l 260 608 m 87 347 l 87 868 l 174 868 l 174 608 l 260 608 l 260 521 l 174 521 l 174 347 l 87 347 m 174 868 l 174 955 l 260 955 l 260 868 l 174 868 m 434 868 l 434 955 l 521 955 l 521 868 l 434 868 m 260 955 l 260 1042 l 434 1042 l 434 955 l 260 955 z "},"7":{"ha":608,"x_min":87,"x_max":521,"o":"m 87 174 l 87 347 l 174 347 l 174 174 l 87 174 m 174 347 l 174 521 l 260 521 l 260 347 l 174 347 m 260 521 l 260 694 l 347 694 l 347 521 l 260 521 m 347 694 l 347 868 l 434 868 l 434 694 l 347 694 m 434 868 l 434 955 l 87 955 l 87 1042 l 521 1042 l 521 868 l 434 868 z "},"8":{"ha":694,"x_min":87,"x_max":608,"o":"m 260 174 l 260 260 l 434 260 l 434 174 l 260 174 m 174 260 l 174 347 l 260 347 l 260 260 l 174 260 m 434 260 l 434 347 l 521 347 l 521 260 l 434 260 m 87 347 l 87 521 l 174 521 l 174 347 l 87 347 m 521 347 l 521 521 l 608 521 l 608 347 l 521 347 m 174 521 l 174 608 l 260 608 l 260 521 l 174 521 m 434 521 l 434 608 l 521 608 l 521 521 l 434 521 m 260 608 l 260 694 l 434 694 l 434 608 l 260 608 m 174 694 l 174 781 l 260 781 l 260 694 l 174 694 m 434 694 l 434 781 l 521 781 l 521 694 l 434 694 m 87 781 l 87 868 l 174 868 l 174 781 l 87 781 m 521 781 l 521 868 l 608 868 l 608 781 l 521 781 m 174 868 l 174 955 l 260 955 l 260 868 l 174 868 m 434 868 l 434 955 l 521 955 l 521 868 l 434 868 m 260 955 l 260 1042 l 434 1042 l 434 955 l 260 955 z "},"9":{"ha":694,"x_min":87,"x_max":608,"o":"m 174 608 l 174 694 l 260 694 l 260 608 l 174 608 m 87 694 l 87 955 l 174 955 l 174 694 l 87 694 m 521 174 l 521 521 l 260 521 l 260 608 l 521 608 l 521 955 l 608 955 l 608 174 l 521 174 m 174 955 l 174 1042 l 521 1042 l 521 955 l 174 955 z "}," ":{"ha":260,"x_min":0,"x_max":0,"o":""},"!":{"ha":260,"x_min":87,"x_max":174,"o":"m 87 174 l 87 347 l 174 347 l 174 174 l 87 174 m 87 434 l 87 1042 l 174 1042 l 174 434 l 87 434 z "},"\"":{"ha":434,"x_min":87,"x_max":347,"o":"m 87 868 l 87 1215 l 174 1215 l 174 868 l 87 868 m 260 868 l 260 1215 l 347 1215 l 347 868 l 260 868 z "},"#":{"ha":1128,"x_min":87,"x_max":1042,"o":"m 174 174 l 174 347 l 260 347 l 260 174 l 174 174 m 521 174 l 521 347 l 608 347 l 608 174 l 521 174 m 694 521 l 694 694 l 434 694 l 434 521 l 694 521 m 260 347 l 260 434 l 87 434 l 87 521 l 347 521 l 347 694 l 87 694 l 87 781 l 434 781 l 434 868 l 521 868 l 521 781 l 781 781 l 781 868 l 868 868 l 868 781 l 1042 781 l 1042 694 l 781 694 l 781 521 l 1042 521 l 1042 434 l 694 434 l 694 347 l 608 347 l 608 434 l 347 434 l 347 347 l 260 347 m 521 868 l 521 1042 l 608 1042 l 608 868 l 521 868 m 868 868 l 868 1042 l 955 1042 l 955 868 l 868 868 z "},"$":{"ha":694,"x_min":87,"x_max":608,"o":"m 87 260 l 87 347 l 174 347 l 174 260 l 87 260 m 521 347 l 521 521 l 608 521 l 608 347 l 521 347 m 174 694 l 174 781 l 260 781 l 260 694 l 174 694 m 87 781 l 87 868 l 174 868 l 174 781 l 87 781 m 174 868 l 174 955 l 260 955 l 260 868 l 174 868 m 521 868 l 521 955 l 608 955 l 608 868 l 521 868 m 347 87 l 347 174 l 174 174 l 174 260 l 347 260 l 347 608 l 260 608 l 260 694 l 347 694 l 347 955 l 260 955 l 260 1042 l 347 1042 l 347 1128 l 434 1128 l 434 1042 l 521 1042 l 521 955 l 434 955 l 434 608 l 521 608 l 521 521 l 434 521 l 434 347 l 521 347 l 521 260 l 434 260 l 434 87 l 347 87 z "},"%":{"ha":955,"x_min":87,"x_max":868,"o":"m 608 174 l 608 260 l 781 260 l 781 174 l 608 174 m 174 260 l 174 347 l 260 347 l 260 260 l 174 260 m 260 347 l 260 434 l 347 434 l 347 347 l 260 347 m 347 434 l 347 521 l 434 521 l 434 434 l 347 434 m 521 260 l 521 521 l 608 521 l 608 260 l 521 260 m 781 260 l 781 521 l 868 521 l 868 260 l 781 260 m 434 521 l 434 608 l 521 608 l 521 521 l 434 521 m 608 521 l 608 608 l 781 608 l 781 521 l 608 521 m 174 608 l 174 694 l 347 694 l 347 608 l 174 608 m 521 608 l 521 694 l 608 694 l 608 608 l 521 608 m 608 694 l 608 781 l 694 781 l 694 694 l 608 694 m 694 781 l 694 868 l 781 868 l 781 781 l 694 781 m 87 694 l 87 955 l 174 955 l 174 694 l 87 694 m 347 694 l 347 955 l 434 955 l 434 694 l 347 694 m 781 868 l 781 955 l 868 955 l 868 868 l 781 868 m 174 955 l 174 1042 l 347 1042 l 347 955 l 174 955 z "},"&":{"ha":955,"x_min":87,"x_max":955,"o":"m 260 174 l 260 260 l 521 260 l 521 174 l 260 174 m 868 174 l 868 260 l 955 260 l 955 174 l 868 174 m 174 260 l 174 347 l 260 347 l 260 260 l 174 260 m 521 260 l 521 347 l 608 347 l 608 260 l 521 260 m 781 260 l 781 347 l 868 347 l 868 260 l 781 260 m 87 347 l 87 521 l 174 521 l 174 347 l 87 347 m 608 347 l 608 521 l 781 521 l 781 347 l 608 347 m 174 521 l 174 608 l 260 608 l 260 521 l 174 521 m 521 521 l 521 608 l 608 608 l 608 521 l 521 521 m 781 521 l 781 608 l 868 608 l 868 521 l 781 521 m 260 608 l 260 781 l 347 781 l 347 694 l 521 694 l 521 608 l 260 608 m 174 781 l 174 955 l 260 955 l 260 781 l 174 781 m 521 694 l 521 955 l 608 955 l 608 694 l 521 694 m 260 955 l 260 1042 l 521 1042 l 521 955 l 260 955 z "},"'":{"ha":347,"x_min":87,"x_max":174,"o":"m 87 868 l 87 1215 l 174 1215 l 174 868 l 87 868 z "},"(":{"ha":347,"x_min":87,"x_max":347,"o":"m 260 87 l 260 174 l 347 174 l 347 87 l 260 87 m 174 174 l 174 260 l 260 260 l 260 174 l 174 174 m 87 260 l 87 868 l 174 868 l 174 260 l 87 260 m 174 868 l 174 955 l 260 955 l 260 868 l 174 868 m 260 955 l 260 1042 l 347 1042 l 347 955 l 260 955 z "},")":{"ha":347,"x_min":0,"x_max":260,"o":"m 0 87 l 0 174 l 87 174 l 87 87 l 0 87 m 87 174 l 87 260 l 174 260 l 174 174 l 87 174 m 174 260 l 174 868 l 260 868 l 260 260 l 174 260 m 87 868 l 87 955 l 174 955 l 174 868 l 87 868 m 0 955 l 0 1042 l 87 1042 l 87 955 l 0 955 z "},"*":{"ha":781,"x_min":87,"x_max":694,"o":"m 174 521 l 174 608 l 260 608 l 260 521 l 174 521 m 521 521 l 521 608 l 608 608 l 608 521 l 521 521 m 260 608 l 260 694 l 347 694 l 347 608 l 260 608 m 434 608 l 434 694 l 521 694 l 521 608 l 434 608 m 347 694 l 347 781 l 87 781 l 87 868 l 347 868 l 347 1042 l 434 1042 l 434 868 l 694 868 l 694 781 l 434 781 l 434 694 l 347 694 z "},"+":{"ha":608,"x_min":0,"x_max":608,"o":"m 260 260 l 260 521 l 0 521 l 0 608 l 260 608 l 260 868 l 347 868 l 347 608 l 608 608 l 608 521 l 347 521 l 347 260 l 260 260 z "},",":{"ha":347,"x_min":87,"x_max":260,"o":"m 87 87 l 87 174 l 174 174 l 174 87 l 87 87 m 174 174 l 174 347 l 87 347 l 87 434 l 260 434 l 260 174 l 174 174 z "},"-":{"ha":521,"x_min":87,"x_max":434,"o":"m 87 521 l 87 608 l 434 608 l 434 521 l 87 521 z "},".":{"ha":260,"x_min":87,"x_max":174,"o":"m 87 174 l 87 260 l 174 260 l 174 174 l 87 174 z "},"/":{"ha":521,"x_min":87,"x_max":434,"o":"m 87 174 l 87 434 l 174 434 l 174 174 l 87 174 m 174 434 l 174 694 l 260 694 l 260 434 l 174 434 m 260 694 l 260 955 l 347 955 l 347 694 l 260 694 m 347 955 l 347 1215 l 434 1215 l 434 955 l 347 955 z "},":":{"ha":260,"x_min":87,"x_max":174,"o":"m 87 174 l 87 260 l 174 260 l 174 174 l 87 174 m 87 608 l 87 694 l 174 694 l 174 608 l 87 608 z "},";":{"ha":347,"x_min":0,"x_max":260,"o":"m 0 174 l 0 260 l 87 260 l 87 174 l 0 174 m 87 260 l 87 347 l 174 347 l 174 260 l 87 260 m 174 347 l 174 434 l 87 434 l 87 521 l 260 521 l 260 347 l 174 347 m 174 781 l 174 868 l 260 868 l 260 781 l 174 781 z "},"<":{"ha":521,"x_min":0,"x_max":521,"o":"m 434 347 l 434 434 l 521 434 l 521 347 l 434 347 m 174 434 l 174 521 l 434 521 l 434 434 l 174 434 m 87 521 l 87 608 l 174 608 l 174 521 l 87 521 m 0 608 l 0 694 l 87 694 l 87 608 l 0 608 m 87 694 l 87 781 l 174 781 l 174 694 l 87 694 m 174 781 l 174 868 l 434 868 l 434 781 l 174 781 m 434 868 l 434 955 l 521 955 l 521 868 l 434 868 z "},"=":{"ha":694,"x_min":87,"x_max":608,"o":"m 87 347 l 87 434 l 608 434 l 608 347 l 87 347 m 87 608 l 87 694 l 608 694 l 608 608 l 87 608 z "},">":{"ha":521,"x_min":0,"x_max":521,"o":"m 0 347 l 0 434 l 87 434 l 87 347 l 0 347 m 87 434 l 87 521 l 347 521 l 347 434 l 87 434 m 347 521 l 347 608 l 434 608 l 434 521 l 347 521 m 434 608 l 434 694 l 521 694 l 521 608 l 434 608 m 347 694 l 347 781 l 434 781 l 434 694 l 347 694 m 87 781 l 87 868 l 347 868 l 347 781 l 87 781 m 0 868 l 0 955 l 87 955 l 87 868 l 0 868 z "},"?":{"ha":694,"x_min":0,"x_max":608,"o":"m 260 174 l 260 260 l 347 260 l 347 174 l 260 174 m 260 347 l 260 608 l 347 608 l 347 347 l 260 347 m 347 608 l 347 694 l 434 694 l 434 608 l 347 608 m 434 694 l 434 781 l 521 781 l 521 694 l 434 694 m 0 955 l 0 1042 l 87 1042 l 87 955 l 0 955 m 87 1042 l 87 1128 l 174 1128 l 174 1042 l 87 1042 m 521 781 l 521 1128 l 608 1128 l 608 781 l 521 781 m 174 1128 l 174 1215 l 521 1215 l 521 1128 l 174 1128 z "},"@":{"ha":1128,"x_min":87,"x_max":1042,"o":"m 260 174 l 260 260 l 955 260 l 955 174 l 260 174 m 174 260 l 174 347 l 260 347 l 260 260 l 174 260 m 347 347 l 347 434 l 608 434 l 608 347 l 347 347 m 868 347 l 868 434 l 955 434 l 955 347 l 868 347 m 608 434 l 608 521 l 694 521 l 694 434 l 608 434 m 781 434 l 781 521 l 868 521 l 868 434 l 781 434 m 260 434 l 260 694 l 347 694 l 347 434 l 260 434 m 87 347 l 87 781 l 174 781 l 174 347 l 87 347 m 347 694 l 347 781 l 434 781 l 434 694 l 347 694 m 694 521 l 694 781 l 781 781 l 781 521 l 694 521 m 174 781 l 174 868 l 260 868 l 260 781 l 174 781 m 434 781 l 434 868 l 694 868 l 694 781 l 434 781 m 955 434 l 955 868 l 1042 868 l 1042 434 l 955 434 m 260 868 l 260 955 l 347 955 l 347 868 l 260 868 m 868 868 l 868 955 l 955 955 l 955 868 l 868 868 m 347 955 l 347 1042 l 868 1042 l 868 955 l 347 955 z "},"A":{"ha":694,"x_min":87,"x_max":608,"o":"m 87 174 l 87 868 l 174 868 l 174 694 l 521 694 l 521 868 l 608 868 l 608 174 l 521 174 l 521 608 l 174 608 l 174 174 l 87 174 m 174 868 l 174 955 l 260 955 l 260 868 l 174 868 m 434 868 l 434 955 l 521 955 l 521 868 l 434 868 m 260 955 l 260 1042 l 434 1042 l 434 955 l 260 955 z "},"B":{"ha":608,"x_min":87,"x_max":521,"o":"m 434 260 l 434 608 l 521 608 l 521 260 l 434 260 m 434 694 l 434 955 l 521 955 l 521 694 l 434 694 m 87 174 l 87 1042 l 434 1042 l 434 955 l 174 955 l 174 694 l 434 694 l 434 608 l 174 608 l 174 260 l 434 260 l 434 174 l 87 174 z "},"C":{"ha":608,"x_min":87,"x_max":521,"o":"m 260 174 l 260 260 l 434 260 l 434 174 l 260 174 m 174 260 l 174 347 l 260 347 l 260 260 l 174 260 m 434 260 l 434 347 l 521 347 l 521 260 l 434 260 m 87 347 l 87 868 l 174 868 l 174 347 l 87 347 m 174 868 l 174 955 l 260 955 l 260 868 l 174 868 m 434 868 l 434 955 l 521 955 l 521 868 l 434 868 m 260 955 l 260 1042 l 434 1042 l 434 955 l 260 955 z "},"D":{"ha":608,"x_min":87,"x_max":521,"o":"m 434 260 l 434 868 l 521 868 l 521 260 l 434 260 m 347 868 l 347 955 l 434 955 l 434 868 l 347 868 m 87 174 l 87 1042 l 347 1042 l 347 955 l 174 955 l 174 260 l 434 260 l 434 174 l 87 174 z "},"E":{"ha":521,"x_min":87,"x_max":521,"o":"m 87 174 l 87 1042 l 521 1042 l 521 955 l 174 955 l 174 694 l 347 694 l 347 608 l 174 608 l 174 260 l 521 260 l 521 174 l 87 174 z "},"F":{"ha":521,"x_min":87,"x_max":521,"o":"m 87 174 l 87 1042 l 521 1042 l 521 955 l 174 955 l 174 694 l 347 694 l 347 608 l 174 608 l 174 174 l 87 174 z "},"G":{"ha":694,"x_min":87,"x_max":608,"o":"m 260 174 l 260 260 l 521 260 l 521 174 l 260 174 m 174 260 l 174 347 l 260 347 l 260 260 l 174 260 m 521 260 l 521 608 l 608 608 l 608 260 l 521 260 m 347 608 l 347 694 l 521 694 l 521 608 l 347 608 m 87 347 l 87 868 l 174 868 l 174 347 l 87 347 m 174 868 l 174 955 l 260 955 l 260 868 l 174 868 m 521 868 l 521 955 l 608 955 l 608 868 l 521 868 m 260 955 l 260 1042 l 521 1042 l 521 955 l 260 955 z "},"H":{"ha":608,"x_min":87,"x_max":521,"o":"m 87 174 l 87 1042 l 174 1042 l 174 694 l 434 694 l 434 1042 l 521 1042 l 521 174 l 434 174 l 434 608 l 174 608 l 174 174 l 87 174 z "},"I":{"ha":260,"x_min":0,"x_max":260,"o":"m 0 174 l 0 260 l 87 260 l 87 955 l 0 955 l 0 1042 l 260 1042 l 260 955 l 174 955 l 174 260 l 260 260 l 260 174 l 0 174 z "},"J":{"ha":608,"x_min":87,"x_max":608,"o":"m 174 174 l 174 260 l 347 260 l 347 174 l 174 174 m 87 260 l 87 434 l 174 434 l 174 260 l 87 260 m 347 260 l 347 955 l 87 955 l 87 1042 l 608 1042 l 608 955 l 434 955 l 434 260 l 347 260 z "},"K":{"ha":608,"x_min":87,"x_max":608,"o":"m 521 174 l 521 260 l 608 260 l 608 174 l 521 174 m 434 260 l 434 347 l 521 347 l 521 260 l 434 260 m 347 347 l 347 434 l 434 434 l 434 347 l 347 347 m 260 434 l 260 521 l 347 521 l 347 434 l 260 434 m 260 781 l 260 868 l 347 868 l 347 781 l 260 781 m 347 868 l 347 955 l 434 955 l 434 868 l 347 868 m 87 174 l 87 1042 l 174 1042 l 174 781 l 260 781 l 260 694 l 174 694 l 174 608 l 260 608 l 260 521 l 174 521 l 174 174 l 87 174 m 434 955 l 434 1042 l 521 1042 l 521 955 l 434 955 z "},"L":{"ha":521,"x_min":87,"x_max":521,"o":"m 87 174 l 87 1042 l 174 1042 l 174 260 l 521 260 l 521 174 l 87 174 z "},"M":{"ha":781,"x_min":87,"x_max":694,"o":"m 347 608 l 347 694 l 434 694 l 434 608 l 347 608 m 260 694 l 260 781 l 347 781 l 347 694 l 260 694 m 434 694 l 434 781 l 521 781 l 521 694 l 434 694 m 87 174 l 87 1042 l 174 1042 l 174 868 l 260 868 l 260 781 l 174 781 l 174 174 l 87 174 m 608 174 l 608 781 l 521 781 l 521 868 l 608 868 l 608 1042 l 694 1042 l 694 174 l 608 174 z "},"N":{"ha":694,"x_min":87,"x_max":608,"o":"m 347 434 l 347 694 l 434 694 l 434 434 l 347 434 m 260 694 l 260 868 l 347 868 l 347 694 l 260 694 m 87 174 l 87 1042 l 174 1042 l 174 955 l 260 955 l 260 868 l 174 868 l 174 174 l 87 174 m 521 174 l 521 260 l 434 260 l 434 434 l 521 434 l 521 1042 l 608 1042 l 608 174 l 521 174 z "},"O":{"ha":694,"x_min":87,"x_max":608,"o":"m 260 174 l 260 260 l 434 260 l 434 174 l 260 174 m 174 260 l 174 347 l 260 347 l 260 260 l 174 260 m 434 260 l 434 347 l 521 347 l 521 260 l 434 260 m 87 347 l 87 868 l 174 868 l 174 347 l 87 347 m 521 347 l 521 868 l 608 868 l 608 347 l 521 347 m 174 868 l 174 955 l 260 955 l 260 868 l 174 868 m 434 868 l 434 955 l 521 955 l 521 868 l 434 868 m 260 955 l 260 1042 l 434 1042 l 434 955 l 260 955 z "},"P":{"ha":608,"x_min":87,"x_max":521,"o":"m 347 608 l 347 694 l 434 694 l 434 608 l 347 608 m 434 694 l 434 868 l 521 868 l 521 694 l 434 694 m 347 868 l 347 955 l 434 955 l 434 868 l 347 868 m 87 174 l 87 1042 l 347 1042 l 347 955 l 174 955 l 174 608 l 347 608 l 347 521 l 174 521 l 174 174 l 87 174 z "},"Q":{"ha":694,"x_min":87,"x_max":608,"o":"m 260 174 l 260 260 l 434 260 l 434 174 l 260 174 m 521 174 l 521 260 l 608 260 l 608 174 l 521 174 m 174 260 l 174 347 l 260 347 l 260 260 l 174 260 m 434 260 l 434 347 l 521 347 l 521 260 l 434 260 m 347 347 l 347 434 l 434 434 l 434 347 l 347 347 m 260 434 l 260 521 l 347 521 l 347 434 l 260 434 m 87 347 l 87 868 l 174 868 l 174 347 l 87 347 m 521 347 l 521 868 l 608 868 l 608 347 l 521 347 m 174 868 l 174 955 l 260 955 l 260 868 l 174 868 m 434 868 l 434 955 l 521 955 l 521 868 l 434 868 m 260 955 l 260 1042 l 434 1042 l 434 955 l 260 955 z "},"R":{"ha":608,"x_min":87,"x_max":521,"o":"m 434 174 l 434 347 l 521 347 l 521 174 l 434 174 m 347 347 l 347 434 l 434 434 l 434 347 l 347 347 m 347 608 l 347 694 l 434 694 l 434 608 l 347 608 m 434 694 l 434 955 l 521 955 l 521 694 l 434 694 m 87 174 l 87 1042 l 434 1042 l 434 955 l 174 955 l 174 608 l 347 608 l 347 434 l 260 434 l 260 521 l 174 521 l 174 174 l 87 174 z "},"S":{"ha":608,"x_min":87,"x_max":521,"o":"m 174 174 l 174 260 l 347 260 l 347 174 l 174 174 m 87 260 l 87 347 l 174 347 l 174 260 l 87 260 m 347 260 l 347 347 l 434 347 l 434 260 l 347 260 m 434 347 l 434 521 l 521 521 l 521 347 l 434 347 m 347 521 l 347 608 l 434 608 l 434 521 l 347 521 m 260 608 l 260 694 l 347 694 l 347 608 l 260 608 m 174 694 l 174 781 l 260 781 l 260 694 l 174 694 m 87 781 l 87 868 l 174 868 l 174 781 l 87 781 m 174 868 l 174 955 l 260 955 l 260 868 l 174 868 m 434 868 l 434 955 l 521 955 l 521 868 l 434 868 m 260 955 l 260 1042 l 434 1042 l 434 955 l 260 955 z "},"T":{"ha":434,"x_min":0,"x_max":434,"o":"m 174 174 l 174 955 l 0 955 l 0 1042 l 434 1042 l 434 955 l 260 955 l 260 174 l 174 174 z "},"U":{"ha":694,"x_min":87,"x_max":608,"o":"m 260 174 l 260 260 l 434 260 l 434 174 l 260 174 m 174 260 l 174 347 l 260 347 l 260 260 l 174 260 m 87 347 l 87 1042 l 174 1042 l 174 347 l 87 347 m 521 174 l 521 260 l 434 260 l 434 347 l 521 347 l 521 1042 l 608 1042 l 608 174 l 521 174 z "},"V":{"ha":608,"x_min":87,"x_max":521,"o":"m 260 174 l 260 347 l 347 347 l 347 174 l 260 174 m 174 347 l 174 608 l 260 608 l 260 347 l 174 347 m 347 347 l 347 608 l 434 608 l 434 347 l 347 347 m 87 608 l 87 1042 l 174 1042 l 174 608 l 87 608 m 434 608 l 434 1042 l 521 1042 l 521 608 l 434 608 z "},"W":{"ha":781,"x_min":87,"x_max":694,"o":"m 174 260 l 174 347 l 260 347 l 260 260 l 174 260 m 521 260 l 521 347 l 608 347 l 608 260 l 521 260 m 260 174 l 260 260 l 347 260 l 347 694 l 434 694 l 434 260 l 521 260 l 521 174 l 260 174 m 87 347 l 87 1042 l 174 1042 l 174 347 l 87 347 m 608 347 l 608 1042 l 694 1042 l 694 347 l 608 347 z "},"X":{"ha":608,"x_min":87,"x_max":521,"o":"m 87 174 l 87 434 l 174 434 l 174 174 l 87 174 m 434 174 l 434 434 l 521 434 l 521 174 l 434 174 m 174 434 l 174 608 l 260 608 l 260 434 l 174 434 m 347 434 l 347 608 l 434 608 l 434 434 l 347 434 m 260 608 l 260 694 l 347 694 l 347 608 l 260 608 m 174 694 l 174 868 l 260 868 l 260 694 l 174 694 m 347 694 l 347 868 l 434 868 l 434 694 l 347 694 m 87 868 l 87 1042 l 174 1042 l 174 868 l 87 868 m 434 868 l 434 1042 l 521 1042 l 521 868 l 434 868 z "},"Y":{"ha":608,"x_min":87,"x_max":521,"o":"m 260 174 l 260 694 l 347 694 l 347 174 l 260 174 m 174 694 l 174 781 l 260 781 l 260 694 l 174 694 m 347 694 l 347 781 l 434 781 l 434 694 l 347 694 m 87 781 l 87 1042 l 174 1042 l 174 781 l 87 781 m 434 781 l 434 1042 l 521 1042 l 521 781 l 434 781 z "},"Z":{"ha":608,"x_min":87,"x_max":521,"o":"m 87 174 l 87 434 l 174 434 l 174 260 l 521 260 l 521 174 l 87 174 m 174 434 l 174 608 l 260 608 l 260 434 l 174 434 m 260 608 l 260 694 l 347 694 l 347 608 l 260 608 m 347 694 l 347 868 l 434 868 l 434 694 l 347 694 m 434 868 l 434 955 l 87 955 l 87 1042 l 521 1042 l 521 868 l 434 868 z "},"[":{"ha":434,"x_min":87,"x_max":434,"o":"m 87 87 l 87 1042 l 434 1042 l 434 955 l 174 955 l 174 174 l 434 174 l 434 87 l 87 87 z "},"\\":{"ha":521,"x_min":87,"x_max":434,"o":"m 347 174 l 347 434 l 434 434 l 434 174 l 347 174 m 260 434 l 260 694 l 347 694 l 347 434 l 260 434 m 174 694 l 174 955 l 260 955 l 260 694 l 174 694 m 87 955 l 87 1215 l 174 1215 l 174 955 l 87 955 z "},"]":{"ha":434,"x_min":0,"x_max":347,"o":"m 0 87 l 0 174 l 260 174 l 260 955 l 0 955 l 0 1042 l 347 1042 l 347 87 l 0 87 z "},"^":{"ha":694,"x_min":87,"x_max":608,"o":"m 87 608 l 87 694 l 174 694 l 174 608 l 87 608 m 521 608 l 521 694 l 608 694 l 608 608 l 521 608 m 174 694 l 174 955 l 260 955 l 260 694 l 174 694 m 434 694 l 434 955 l 521 955 l 521 694 l 434 694 m 260 955 l 260 1042 l 434 1042 l 434 955 l 260 955 z "},"_":{"ha":781,"x_min":87,"x_max":694,"o":"m 87 174 l 87 260 l 694 260 l 694 174 l 87 174 z "},"`":{"ha":347,"x_min":87,"x_max":260,"o":"m 174 868 l 174 955 l 260 955 l 260 868 l 174 868 m 87 955 l 87 1215 l 260 1215 l 260 1128 l 174 1128 l 174 955 l 87 955 z "},"a":{"ha":608,"x_min":87,"x_max":521,"o":"m 87 260 l 87 434 l 174 434 l 174 260 l 87 260 m 87 521 l 87 608 l 174 608 l 174 521 l 87 521 m 174 174 l 174 260 l 434 260 l 434 434 l 174 434 l 174 521 l 434 521 l 434 608 l 521 608 l 521 174 l 174 174 m 174 608 l 174 694 l 434 694 l 434 608 l 174 608 z "},"b":{"ha":608,"x_min":87,"x_max":521,"o":"m 434 260 l 434 521 l 521 521 l 521 260 l 434 260 m 347 521 l 347 608 l 434 608 l 434 521 l 347 521 m 87 174 l 87 1042 l 174 1042 l 174 694 l 347 694 l 347 608 l 174 608 l 174 260 l 434 260 l 434 174 l 87 174 z "},"c":{"ha":521,"x_min":87,"x_max":434,"o":"m 174 174 l 174 260 l 434 260 l 434 174 l 174 174 m 87 260 l 87 608 l 174 608 l 174 260 l 87 260 m 174 608 l 174 694 l 434 694 l 434 608 l 174 608 z "},"d":{"ha":608,"x_min":87,"x_max":521,"o":"m 87 260 l 87 521 l 174 521 l 174 260 l 87 260 m 174 521 l 174 608 l 260 608 l 260 521 l 174 521 m 174 174 l 174 260 l 434 260 l 434 608 l 260 608 l 260 694 l 434 694 l 434 1042 l 521 1042 l 521 174 l 174 174 z "},"e":{"ha":608,"x_min":87,"x_max":521,"o":"m 174 174 l 174 260 l 521 260 l 521 174 l 174 174 m 87 260 l 87 608 l 174 608 l 174 434 l 434 434 l 434 347 l 174 347 l 174 260 l 87 260 m 434 434 l 434 608 l 521 608 l 521 434 l 434 434 m 174 608 l 174 694 l 434 694 l 434 608 l 174 608 z "},"f":{"ha":521,"x_min":87,"x_max":521,"o":"m 87 -87 l 87 0 l 174 0 l 174 -87 l 87 -87 m 174 0 l 174 434 l 87 434 l 87 521 l 174 521 l 174 781 l 260 781 l 260 521 l 347 521 l 347 434 l 260 434 l 260 0 l 174 0 m 434 694 l 434 781 l 521 781 l 521 694 l 434 694 m 260 781 l 260 868 l 434 868 l 434 781 l 260 781 z "},"g":{"ha":608,"x_min":87,"x_max":521,"o":"m 174 -174 l 174 -87 l 434 -87 l 434 -174 l 174 -174 m 87 -87 l 87 0 l 174 0 l 174 -87 l 87 -87 m 87 260 l 87 608 l 174 608 l 174 260 l 87 260 m 434 -87 l 434 174 l 174 174 l 174 260 l 434 260 l 434 608 l 521 608 l 521 -87 l 434 -87 m 174 608 l 174 694 l 434 694 l 434 608 l 174 608 z "},"h":{"ha":608,"x_min":87,"x_max":521,"o":"m 434 174 l 434 608 l 521 608 l 521 174 l 434 174 m 260 608 l 260 694 l 434 694 l 434 608 l 260 608 m 87 174 l 87 1042 l 174 1042 l 174 608 l 260 608 l 260 521 l 174 521 l 174 174 l 87 174 z "},"i":{"ha":260,"x_min":87,"x_max":174,"o":"m 87 174 l 87 608 l 174 608 l 174 174 l 87 174 m 87 694 l 87 781 l 174 781 l 174 694 l 87 694 z "},"j":{"ha":521,"x_min":87,"x_max":434,"o":"m 174 -174 l 174 -87 l 347 -87 l 347 -174 l 174 -174 m 87 -87 l 87 87 l 174 87 l 174 -87 l 87 -87 m 347 -87 l 347 608 l 434 608 l 434 -87 l 347 -87 m 347 694 l 347 781 l 434 781 l 434 694 l 347 694 z "},"k":{"ha":521,"x_min":87,"x_max":521,"o":"m 434 174 l 434 260 l 521 260 l 521 174 l 434 174 m 347 260 l 347 347 l 434 347 l 434 260 l 347 260 m 260 347 l 260 434 l 347 434 l 347 347 l 260 347 m 260 521 l 260 608 l 347 608 l 347 521 l 260 521 m 347 608 l 347 694 l 434 694 l 434 608 l 347 608 m 87 174 l 87 1042 l 174 1042 l 174 521 l 260 521 l 260 434 l 174 434 l 174 174 l 87 174 z "},"l":{"ha":260,"x_min":87,"x_max":174,"o":"m 87 174 l 87 1042 l 174 1042 l 174 174 l 87 174 z "},"m":{"ha":781,"x_min":87,"x_max":694,"o":"m 87 174 l 87 608 l 174 608 l 174 174 l 87 174 m 347 174 l 347 608 l 434 608 l 434 174 l 347 174 m 608 174 l 608 608 l 694 608 l 694 174 l 608 174 m 174 608 l 174 694 l 347 694 l 347 608 l 174 608 m 434 608 l 434 694 l 608 694 l 608 608 l 434 608 z "},"n":{"ha":608,"x_min":87,"x_max":521,"o":"m 434 174 l 434 608 l 521 608 l 521 174 l 434 174 m 87 174 l 87 694 l 174 694 l 174 608 l 260 608 l 260 521 l 174 521 l 174 174 l 87 174 m 260 608 l 260 694 l 434 694 l 434 608 l 260 608 z "},"o":{"ha":608,"x_min":87,"x_max":521,"o":"m 174 174 l 174 260 l 434 260 l 434 174 l 174 174 m 87 260 l 87 608 l 174 608 l 174 260 l 87 260 m 434 260 l 434 608 l 521 608 l 521 260 l 434 260 m 174 608 l 174 694 l 434 694 l 434 608 l 174 608 z "},"p":{"ha":608,"x_min":87,"x_max":521,"o":"m 87 -174 l 87 608 l 174 608 l 174 260 l 434 260 l 434 174 l 174 174 l 174 -174 l 87 -174 m 434 260 l 434 608 l 521 608 l 521 260 l 434 260 m 174 608 l 174 694 l 434 694 l 434 608 l 174 608 z "},"q":{"ha":608,"x_min":87,"x_max":521,"o":"m 174 260 l 174 347 l 260 347 l 260 260 l 174 260 m 87 347 l 87 521 l 174 521 l 174 347 l 87 347 m 174 521 l 174 608 l 260 608 l 260 521 l 174 521 m 434 -174 l 434 174 l 260 174 l 260 260 l 434 260 l 434 608 l 521 608 l 521 -174 l 434 -174 m 260 608 l 260 694 l 434 694 l 434 608 l 260 608 z "},"r":{"ha":434,"x_min":87,"x_max":347,"o":"m 87 174 l 87 694 l 174 694 l 174 608 l 260 608 l 260 521 l 174 521 l 174 174 l 87 174 m 260 608 l 260 694 l 347 694 l 347 608 l 260 608 z "},"s":{"ha":608,"x_min":87,"x_max":521,"o":"m 87 174 l 87 260 l 434 260 l 434 174 l 87 174 m 434 260 l 434 434 l 521 434 l 521 260 l 434 260 m 174 434 l 174 521 l 434 521 l 434 434 l 174 434 m 87 521 l 87 608 l 174 608 l 174 521 l 87 521 m 174 608 l 174 694 l 521 694 l 521 608 l 174 608 z "},"t":{"ha":434,"x_min":87,"x_max":347,"o":"m 174 174 l 174 260 l 347 260 l 347 174 l 174 174 m 87 260 l 87 955 l 174 955 l 174 694 l 347 694 l 347 608 l 174 608 l 174 260 l 87 260 z "},"u":{"ha":608,"x_min":87,"x_max":521,"o":"m 174 174 l 174 260 l 434 260 l 434 174 l 174 174 m 87 260 l 87 694 l 174 694 l 174 260 l 87 260 m 434 260 l 434 694 l 521 694 l 521 260 l 434 260 z "},"v":{"ha":608,"x_min":87,"x_max":521,"o":"m 260 174 l 260 347 l 347 347 l 347 174 l 260 174 m 174 347 l 174 521 l 260 521 l 260 347 l 174 347 m 347 347 l 347 521 l 434 521 l 434 347 l 347 347 m 87 521 l 87 694 l 174 694 l 174 521 l 87 521 m 434 521 l 434 694 l 521 694 l 521 521 l 434 521 z "},"w":{"ha":608,"x_min":87,"x_max":521,"o":"m 174 174 l 174 260 l 260 260 l 260 521 l 347 521 l 347 260 l 434 260 l 434 174 l 174 174 m 87 260 l 87 694 l 174 694 l 174 260 l 87 260 m 434 260 l 434 694 l 521 694 l 521 260 l 434 260 z "},"x":{"ha":608,"x_min":87,"x_max":521,"o":"m 87 174 l 87 260 l 174 260 l 174 174 l 87 174 m 434 174 l 434 260 l 521 260 l 521 174 l 434 174 m 174 260 l 174 434 l 260 434 l 260 260 l 174 260 m 347 260 l 347 434 l 434 434 l 434 260 l 347 260 m 260 434 l 260 521 l 347 521 l 347 434 l 260 434 m 174 521 l 174 608 l 260 608 l 260 521 l 174 521 m 347 521 l 347 608 l 434 608 l 434 521 l 347 521 m 87 608 l 87 694 l 174 694 l 174 608 l 87 608 m 434 608 l 434 694 l 521 694 l 521 608 l 434 608 z "},"y":{"ha":608,"x_min":87,"x_max":521,"o":"m 174 -174 l 174 -87 l 347 -87 l 347 -174 l 174 -174 m 87 -87 l 87 0 l 174 0 l 174 -87 l 87 -87 m 347 -87 l 347 0 l 434 0 l 434 -87 l 347 -87 m 87 347 l 87 694 l 174 694 l 174 347 l 87 347 m 434 0 l 434 260 l 174 260 l 174 347 l 434 347 l 434 694 l 521 694 l 521 0 l 434 0 z "},"z":{"ha":608,"x_min":87,"x_max":521,"o":"m 87 174 l 87 347 l 174 347 l 174 260 l 521 260 l 521 174 l 87 174 m 174 347 l 174 434 l 260 434 l 260 347 l 174 347 m 260 434 l 260 521 l 347 521 l 347 434 l 260 434 m 347 521 l 347 608 l 87 608 l 87 694 l 521 694 l 521 608 l 434 608 l 434 521 l 347 521 z "},"{":{"ha":434,"x_min":0,"x_max":434,"o":"m 260 87 l 260 174 l 434 174 l 434 87 l 260 87 m 174 174 l 174 434 l 260 434 l 260 174 l 174 174 m 87 434 l 87 521 l 174 521 l 174 434 l 87 434 m 0 521 l 0 608 l 87 608 l 87 521 l 0 521 m 87 608 l 87 694 l 174 694 l 174 608 l 87 608 m 174 694 l 174 955 l 260 955 l 260 694 l 174 694 m 260 955 l 260 1042 l 434 1042 l 434 955 l 260 955 z "},"|":{"ha":260,"x_min":87,"x_max":174,"o":"m 87 174 l 87 1215 l 174 1215 l 174 174 l 87 174 z "},"}":{"ha":434,"x_min":0,"x_max":434,"o":"m 0 87 l 0 174 l 174 174 l 174 87 l 0 87 m 174 174 l 174 434 l 260 434 l 260 174 l 174 174 m 260 434 l 260 521 l 347 521 l 347 434 l 260 434 m 347 521 l 347 608 l 434 608 l 434 521 l 347 521 m 260 608 l 260 694 l 347 694 l 347 608 l 260 608 m 174 694 l 174 955 l 260 955 l 260 694 l 174 694 m 0 955 l 0 1042 l 174 1042 l 174 955 l 0 955 z "},"~":{"ha":955,"x_min":87,"x_max":868,"o":"m 87 521 l 87 608 l 174 608 l 174 521 l 87 521 m 608 521 l 608 608 l 781 608 l 781 521 l 608 521 m 174 608 l 174 694 l 260 694 l 260 608 l 174 608 m 521 608 l 521 694 l 608 694 l 608 608 l 521 608 m 781 608 l 781 694 l 868 694 l 868 608 l 781 608 m 260 694 l 260 781 l 521 781 l 521 694 l 260 694 z "}," ":{"ha":260,"x_min":0,"x_max":0,"o":""},"¡":{"ha":260,"x_min":87,"x_max":174,"o":"m 87 174 l 87 781 l 174 781 l 174 174 l 87 174 m 87 868 l 87 1042 l 174 1042 l 174 868 l 87 868 z "},"¢":{"ha":608,"x_min":87,"x_max":521,"o":"m 87 87 l 87 174 l 174 174 l 174 87 l 87 87 m 260 347 l 260 521 l 347 521 l 347 347 l 260 347 m 174 174 l 174 260 l 87 260 l 87 608 l 174 608 l 174 347 l 260 347 l 260 260 l 434 260 l 434 174 l 174 174 m 347 521 l 347 608 l 174 608 l 174 694 l 434 694 l 434 521 l 347 521 m 434 694 l 434 781 l 521 781 l 521 694 l 434 694 z "},"£":{"ha":781,"x_min":0,"x_max":694,"o":"m 0 174 l 0 260 l 174 260 l 174 608 l 0 608 l 0 694 l 174 694 l 174 955 l 260 955 l 260 694 l 434 694 l 434 608 l 260 608 l 260 260 l 694 260 l 694 174 l 0 174 m 260 955 l 260 1042 l 347 1042 l 347 955 l 260 955 m 608 955 l 608 1042 l 694 1042 l 694 955 l 608 955 m 347 1042 l 347 1128 l 608 1128 l 608 1042 l 347 1042 z "},"¤":{"ha":694,"x_min":87,"x_max":608,"o":"m 87 434 l 87 521 l 174 521 l 174 434 l 87 434 m 521 434 l 521 521 l 608 521 l 608 434 l 521 434 m 434 608 l 434 781 l 260 781 l 260 608 l 434 608 m 87 868 l 87 955 l 174 955 l 174 868 l 87 868 m 260 434 l 260 521 l 174 521 l 174 608 l 87 608 l 87 781 l 174 781 l 174 868 l 260 868 l 260 955 l 434 955 l 434 868 l 521 868 l 521 781 l 608 781 l 608 608 l 521 608 l 521 521 l 434 521 l 434 434 l 260 434 m 521 868 l 521 955 l 608 955 l 608 868 l 521 868 z "},"¥":{"ha":608,"x_min":87,"x_max":521,"o":"m 174 174 l 174 260 l 260 260 l 260 434 l 174 434 l 174 521 l 260 521 l 260 608 l 87 608 l 87 694 l 174 694 l 174 781 l 260 781 l 260 694 l 347 694 l 347 781 l 434 781 l 434 694 l 521 694 l 521 608 l 347 608 l 347 521 l 434 521 l 434 434 l 347 434 l 347 260 l 434 260 l 434 174 l 174 174 m 87 781 l 87 1042 l 174 1042 l 174 781 l 87 781 m 434 781 l 434 1042 l 521 1042 l 521 781 l 434 781 z "},"¦":{"ha":260,"x_min":87,"x_max":174,"o":"m 87 260 l 87 608 l 174 608 l 174 260 l 87 260 m 87 868 l 87 1215 l 174 1215 l 174 868 l 87 868 z "},"§":{"ha":694,"x_min":87,"x_max":608,"o":"m 174 0 l 174 87 l 434 87 l 434 0 l 174 0 m 434 87 l 434 174 l 521 174 l 521 87 l 434 87 m 347 260 l 347 347 l 434 347 l 434 608 l 347 608 l 347 521 l 260 521 l 260 260 l 347 260 m 174 174 l 174 260 l 87 260 l 87 521 l 174 521 l 174 608 l 260 608 l 260 694 l 521 694 l 521 608 l 608 608 l 608 347 l 521 347 l 521 260 l 434 260 l 434 174 l 174 174 m 174 694 l 174 781 l 260 781 l 260 694 l 174 694 m 260 781 l 260 868 l 521 868 l 521 781 l 260 781 z "},"¨":{"ha":608,"x_min":87,"x_max":521,"o":"m 87 1128 l 87 1215 l 260 1215 l 260 1128 l 87 1128 m 347 1128 l 347 1215 l 521 1215 l 521 1128 l 347 1128 z "},"©":{"ha":955,"x_min":87,"x_max":868,"o":"m 260 260 l 260 347 l 694 347 l 694 260 l 260 260 m 174 347 l 174 434 l 260 434 l 260 347 l 174 347 m 694 347 l 694 434 l 781 434 l 781 347 l 694 347 m 347 434 l 347 521 l 608 521 l 608 434 l 347 434 m 260 521 l 260 868 l 347 868 l 347 521 l 260 521 m 87 434 l 87 955 l 174 955 l 174 434 l 87 434 m 347 868 l 347 955 l 608 955 l 608 868 l 347 868 m 781 434 l 781 955 l 868 955 l 868 434 l 781 434 m 174 955 l 174 1042 l 260 1042 l 260 955 l 174 955 m 694 955 l 694 1042 l 781 1042 l 781 955 l 694 955 m 260 1042 l 260 1128 l 694 1128 l 694 1042 l 260 1042 z "},"ª":{"ha":521,"x_min":87,"x_max":434,"o":"m 87 608 l 87 694 l 434 694 l 434 608 l 87 608 m 87 868 l 87 955 l 174 955 l 174 868 l 87 868 m 87 1042 l 87 1128 l 174 1128 l 174 1042 l 87 1042 m 174 781 l 174 868 l 347 868 l 347 955 l 174 955 l 174 1042 l 347 1042 l 347 1128 l 434 1128 l 434 781 l 174 781 m 174 1128 l 174 1215 l 347 1215 l 347 1128 l 174 1128 z "},"«":{"ha":608,"x_min":87,"x_max":521,"o":"m 260 174 l 260 260 l 347 260 l 347 174 l 260 174 m 174 260 l 174 347 l 260 347 l 260 260 l 174 260 m 434 260 l 434 347 l 521 347 l 521 260 l 434 260 m 87 347 l 87 434 l 174 434 l 174 347 l 87 347 m 347 347 l 347 434 l 434 434 l 434 347 l 347 347 m 174 434 l 174 521 l 260 521 l 260 434 l 174 434 m 434 434 l 434 521 l 521 521 l 521 434 l 434 434 m 260 521 l 260 608 l 347 608 l 347 521 l 260 521 z "},"¬":{"ha":694,"x_min":87,"x_max":608,"o":"m 521 174 l 521 347 l 87 347 l 87 434 l 608 434 l 608 174 l 521 174 z "},"­":{"ha":434,"x_min":87,"x_max":347,"o":"m 87 608 l 87 694 l 347 694 l 347 608 l 87 608 z "},"®":{"ha":955,"x_min":87,"x_max":868,"o":"m 260 260 l 260 347 l 694 347 l 694 260 l 260 260 m 174 347 l 174 434 l 260 434 l 260 347 l 174 347 m 694 347 l 694 434 l 781 434 l 781 347 l 694 347 m 608 521 l 608 608 l 694 608 l 694 521 l 608 521 m 608 781 l 608 868 l 694 868 l 694 781 l 608 781 m 87 434 l 87 955 l 174 955 l 174 434 l 87 434 m 260 521 l 260 955 l 608 955 l 608 868 l 347 868 l 347 781 l 608 781 l 608 608 l 521 608 l 521 694 l 347 694 l 347 521 l 260 521 m 781 434 l 781 955 l 868 955 l 868 434 l 781 434 m 174 955 l 174 1042 l 260 1042 l 260 955 l 174 955 m 694 955 l 694 1042 l 781 1042 l 781 955 l 694 955 m 260 1042 l 260 1128 l 694 1128 l 694 1042 l 260 1042 z "},"¯":{"ha":521,"x_min":87,"x_max":434,"o":"m 87 1128 l 87 1215 l 434 1215 l 434 1128 l 87 1128 z "},"°":{"ha":521,"x_min":87,"x_max":434,"o":"m 174 868 l 174 955 l 347 955 l 347 868 l 174 868 m 87 955 l 87 1128 l 174 1128 l 174 955 l 87 955 m 347 955 l 347 1128 l 434 1128 l 434 955 l 347 955 m 174 1128 l 174 1215 l 347 1215 l 347 1128 l 174 1128 z "},"±":{"ha":781,"x_min":87,"x_max":694,"o":"m 87 260 l 87 347 l 347 347 l 347 608 l 87 608 l 87 694 l 347 694 l 347 955 l 434 955 l 434 694 l 694 694 l 694 608 l 434 608 l 434 347 l 694 347 l 694 260 l 87 260 z "},"²":{"ha":521,"x_min":87,"x_max":434,"o":"m 87 781 l 87 868 l 174 868 l 174 955 l 260 955 l 260 868 l 434 868 l 434 781 l 87 781 m 260 955 l 260 1042 l 347 1042 l 347 955 l 260 955 m 87 1042 l 87 1128 l 174 1128 l 174 1042 l 87 1042 m 347 1042 l 347 1128 l 434 1128 l 434 1042 l 347 1042 m 174 1128 l 174 1215 l 347 1215 l 347 1128 l 174 1128 z "},"³":{"ha":521,"x_min":87,"x_max":434,"o":"m 174 781 l 174 868 l 347 868 l 347 781 l 174 781 m 87 868 l 87 955 l 174 955 l 174 868 l 87 868 m 347 868 l 347 955 l 434 955 l 434 868 l 347 868 m 260 955 l 260 1042 l 347 1042 l 347 955 l 260 955 m 87 1042 l 87 1128 l 174 1128 l 174 1042 l 87 1042 m 347 1042 l 347 1128 l 434 1128 l 434 1042 l 347 1042 m 174 1128 l 174 1215 l 347 1215 l 347 1128 l 174 1128 z "},"´":{"ha":521,"x_min":87,"x_max":434,"o":"m 87 1042 l 87 1128 l 174 1128 l 174 1042 l 87 1042 m 347 1042 l 347 1128 l 174 1128 l 174 1215 l 434 1215 l 434 1042 l 347 1042 z "},"µ":{"ha":608,"x_min":87,"x_max":521,"o":"m 87 0 l 87 694 l 174 694 l 174 260 l 434 260 l 434 174 l 174 174 l 174 0 l 87 0 m 434 260 l 434 694 l 521 694 l 521 260 l 434 260 z "},"¶":{"ha":608,"x_min":87,"x_max":608,"o":"m 434 260 l 434 521 l 347 521 l 347 260 l 434 260 m 87 694 l 87 868 l 174 868 l 174 694 l 87 694 m 434 608 l 434 955 l 347 955 l 347 608 l 434 608 m 260 174 l 260 608 l 174 608 l 174 694 l 260 694 l 260 868 l 174 868 l 174 955 l 260 955 l 260 1042 l 608 1042 l 608 955 l 521 955 l 521 260 l 608 260 l 608 174 l 260 174 z "},"·":{"ha":260,"x_min":87,"x_max":174,"o":"m 87 694 l 87 781 l 174 781 l 174 694 l 87 694 z "},"¸":{"ha":434,"x_min":87,"x_max":347,"o":"m 87 0 l 87 87 l 260 87 l 260 0 l 87 0 m 260 87 l 260 174 l 347 174 l 347 87 l 260 87 m 174 174 l 174 260 l 260 260 l 260 174 l 174 174 z "},"¹":{"ha":434,"x_min":87,"x_max":347,"o":"m 87 781 l 87 868 l 174 868 l 174 1128 l 87 1128 l 87 1215 l 260 1215 l 260 868 l 347 868 l 347 781 l 87 781 z "},"º":{"ha":521,"x_min":87,"x_max":434,"o":"m 87 694 l 87 781 l 434 781 l 434 694 l 87 694 m 174 868 l 174 955 l 347 955 l 347 868 l 174 868 m 87 955 l 87 1128 l 174 1128 l 174 955 l 87 955 m 347 955 l 347 1128 l 434 1128 l 434 955 l 347 955 m 174 1128 l 174 1215 l 347 1215 l 347 1128 l 174 1128 z "},"»":{"ha":608,"x_min":87,"x_max":521,"o":"m 260 174 l 260 260 l 347 260 l 347 174 l 260 174 m 87 260 l 87 347 l 174 347 l 174 260 l 87 260 m 347 260 l 347 347 l 434 347 l 434 260 l 347 260 m 174 347 l 174 434 l 260 434 l 260 347 l 174 347 m 434 347 l 434 434 l 521 434 l 521 347 l 434 347 m 87 434 l 87 521 l 174 521 l 174 434 l 87 434 m 347 434 l 347 521 l 434 521 l 434 434 l 347 434 m 260 521 l 260 608 l 347 608 l 347 521 l 260 521 z "},"¼":{"ha":868,"x_min":87,"x_max":868,"o":"m 87 434 l 87 521 l 174 521 l 174 434 l 87 434 m 174 521 l 174 608 l 260 608 l 260 521 l 174 521 m 260 608 l 260 694 l 347 694 l 347 608 l 260 608 m 347 694 l 347 781 l 434 781 l 434 694 l 347 694 m 694 347 l 694 434 l 521 434 l 521 781 l 608 781 l 608 521 l 694 521 l 694 608 l 781 608 l 781 521 l 868 521 l 868 434 l 781 434 l 781 347 l 694 347 m 434 781 l 434 868 l 521 868 l 521 781 l 434 781 m 521 868 l 521 955 l 608 955 l 608 868 l 521 868 m 608 955 l 608 1042 l 694 1042 l 694 955 l 608 955 m 694 1042 l 694 1128 l 781 1128 l 781 1042 l 694 1042 m 87 781 l 87 868 l 174 868 l 174 1128 l 87 1128 l 87 1215 l 260 1215 l 260 868 l 347 868 l 347 781 l 87 781 z "},"½":{"ha":955,"x_min":87,"x_max":868,"o":"m 87 434 l 87 521 l 174 521 l 174 434 l 87 434 m 521 347 l 521 434 l 608 434 l 608 521 l 694 521 l 694 434 l 868 434 l 868 347 l 521 347 m 174 521 l 174 608 l 260 608 l 260 521 l 174 521 m 694 521 l 694 608 l 781 608 l 781 521 l 694 521 m 260 608 l 260 694 l 347 694 l 347 608 l 260 608 m 521 608 l 521 694 l 608 694 l 608 608 l 521 608 m 781 608 l 781 694 l 868 694 l 868 608 l 781 608 m 347 694 l 347 781 l 434 781 l 434 694 l 347 694 m 608 694 l 608 781 l 781 781 l 781 694 l 608 694 m 434 781 l 434 868 l 521 868 l 521 781 l 434 781 m 521 868 l 521 955 l 608 955 l 608 868 l 521 868 m 608 955 l 608 1042 l 694 1042 l 694 955 l 608 955 m 694 1042 l 694 1128 l 781 1128 l 781 1042 l 694 1042 m 87 781 l 87 868 l 174 868 l 174 1128 l 87 1128 l 87 1215 l 260 1215 l 260 868 l 347 868 l 347 781 l 87 781 z "},"¾":{"ha":868,"x_min":87,"x_max":868,"o":"m 87 434 l 87 521 l 174 521 l 174 434 l 87 434 m 174 521 l 174 608 l 260 608 l 260 521 l 174 521 m 260 608 l 260 694 l 347 694 l 347 608 l 260 608 m 347 694 l 347 781 l 434 781 l 434 694 l 347 694 m 694 347 l 694 434 l 521 434 l 521 781 l 608 781 l 608 521 l 694 521 l 694 608 l 781 608 l 781 521 l 868 521 l 868 434 l 781 434 l 781 347 l 694 347 m 174 781 l 174 868 l 347 868 l 347 781 l 174 781 m 434 781 l 434 868 l 521 868 l 521 781 l 434 781 m 87 868 l 87 955 l 174 955 l 174 868 l 87 868 m 347 868 l 347 955 l 434 955 l 434 868 l 347 868 m 521 868 l 521 955 l 608 955 l 608 868 l 521 868 m 260 955 l 260 1042 l 347 1042 l 347 955 l 260 955 m 608 955 l 608 1042 l 694 1042 l 694 955 l 608 955 m 87 1042 l 87 1128 l 174 1128 l 174 1042 l 87 1042 m 347 1042 l 347 1128 l 434 1128 l 434 1042 l 347 1042 m 694 1042 l 694 1128 l 781 1128 l 781 1042 l 694 1042 m 174 1128 l 174 1215 l 347 1215 l 347 1128 l 174 1128 z "},"¿":{"ha":694,"x_min":87,"x_max":694,"o":"m 174 174 l 174 260 l 521 260 l 521 174 l 174 174 m 521 260 l 521 347 l 608 347 l 608 260 l 521 260 m 608 347 l 608 434 l 694 434 l 694 347 l 608 347 m 87 260 l 87 608 l 174 608 l 174 260 l 87 260 m 174 608 l 174 694 l 260 694 l 260 608 l 174 608 m 260 694 l 260 781 l 347 781 l 347 694 l 260 694 m 347 781 l 347 1042 l 434 1042 l 434 781 l 347 781 m 347 1128 l 347 1215 l 434 1215 l 434 1128 l 347 1128 z "},"À":{"ha":694,"x_min":87,"x_max":608,"o":"m 87 174 l 87 781 l 174 781 l 174 608 l 521 608 l 521 781 l 608 781 l 608 174 l 521 174 l 521 521 l 174 521 l 174 174 l 87 174 m 174 781 l 174 868 l 260 868 l 260 781 l 174 781 m 434 781 l 434 868 l 521 868 l 521 781 l 434 781 m 260 868 l 260 955 l 434 955 l 434 868 l 260 868 m 434 1042 l 434 1128 l 521 1128 l 521 1042 l 434 1042 m 260 1128 l 260 1215 l 434 1215 l 434 1128 l 260 1128 z "},"Á":{"ha":694,"x_min":87,"x_max":608,"o":"m 87 174 l 87 781 l 174 781 l 174 608 l 521 608 l 521 781 l 608 781 l 608 174 l 521 174 l 521 521 l 174 521 l 174 174 l 87 174 m 174 781 l 174 868 l 260 868 l 260 781 l 174 781 m 434 781 l 434 868 l 521 868 l 521 781 l 434 781 m 260 868 l 260 955 l 434 955 l 434 868 l 260 868 m 260 1042 l 260 1128 l 347 1128 l 347 1042 l 260 1042 m 347 1128 l 347 1215 l 521 1215 l 521 1128 l 347 1128 z "},"Â":{"ha":694,"x_min":87,"x_max":608,"o":"m 87 174 l 87 781 l 174 781 l 174 608 l 521 608 l 521 781 l 608 781 l 608 174 l 521 174 l 521 521 l 174 521 l 174 174 l 87 174 m 174 781 l 174 868 l 260 868 l 260 781 l 174 781 m 434 781 l 434 868 l 521 868 l 521 781 l 434 781 m 260 868 l 260 955 l 434 955 l 434 868 l 260 868 m 174 1042 l 174 1128 l 260 1128 l 260 1042 l 174 1042 m 521 1042 l 521 1128 l 608 1128 l 608 1042 l 521 1042 m 260 1128 l 260 1215 l 521 1215 l 521 1128 l 260 1128 z "},"Ã":{"ha":694,"x_min":87,"x_max":608,"o":"m 87 174 l 87 781 l 174 781 l 174 608 l 521 608 l 521 781 l 608 781 l 608 174 l 521 174 l 521 521 l 174 521 l 174 174 l 87 174 m 174 781 l 174 868 l 260 868 l 260 781 l 174 781 m 434 781 l 434 868 l 521 868 l 521 781 l 434 781 m 260 868 l 260 955 l 434 955 l 434 868 l 260 868 m 174 1042 l 174 1128 l 260 1128 l 260 1042 l 174 1042 m 347 1042 l 347 1128 l 521 1128 l 521 1042 l 347 1042 m 260 1128 l 260 1215 l 347 1215 l 347 1128 l 260 1128 m 521 1128 l 521 1215 l 608 1215 l 608 1128 l 521 1128 z "},"Ä":{"ha":694,"x_min":87,"x_max":608,"o":"m 87 174 l 87 781 l 174 781 l 174 608 l 521 608 l 521 781 l 608 781 l 608 174 l 521 174 l 521 521 l 174 521 l 174 174 l 87 174 m 174 781 l 174 868 l 260 868 l 260 781 l 174 781 m 434 781 l 434 868 l 521 868 l 521 781 l 434 781 m 260 868 l 260 955 l 434 955 l 434 868 l 260 868 m 174 1042 l 174 1128 l 260 1128 l 260 1042 l 174 1042 m 521 1042 l 521 1128 l 608 1128 l 608 1042 l 521 1042 z "},"Å":{"ha":694,"x_min":87,"x_max":608,"o":"m 87 174 l 87 781 l 174 781 l 174 608 l 521 608 l 521 781 l 608 781 l 608 174 l 521 174 l 521 521 l 174 521 l 174 174 l 87 174 m 174 781 l 174 868 l 260 868 l 260 781 l 174 781 m 434 781 l 434 868 l 521 868 l 521 781 l 434 781 m 260 868 l 260 955 l 434 955 l 434 868 l 260 868 m 260 1042 l 260 1128 l 521 1128 l 521 1042 l 260 1042 m 174 1128 l 174 1215 l 260 1215 l 260 1128 l 174 1128 m 521 1128 l 521 1215 l 608 1215 l 608 1128 l 521 1128 z "},"Æ":{"ha":1042,"x_min":87,"x_max":1042,"o":"m 174 868 l 174 955 l 260 955 l 260 868 l 174 868 m 260 955 l 260 1042 l 434 1042 l 434 955 l 260 955 m 87 174 l 87 868 l 174 868 l 174 694 l 521 694 l 521 868 l 434 868 l 434 955 l 521 955 l 521 1042 l 955 1042 l 955 955 l 608 955 l 608 694 l 781 694 l 781 608 l 608 608 l 608 260 l 1042 260 l 1042 174 l 521 174 l 521 608 l 174 608 l 174 174 l 87 174 z "},"Ç":{"ha":608,"x_min":87,"x_max":521,"o":"m 260 -87 l 260 0 l 434 0 l 434 -87 l 260 -87 m 434 0 l 434 87 l 521 87 l 521 0 l 434 0 m 347 87 l 347 174 l 260 174 l 260 260 l 434 260 l 434 87 l 347 87 m 174 260 l 174 347 l 260 347 l 260 260 l 174 260 m 434 260 l 434 347 l 521 347 l 521 260 l 434 260 m 87 347 l 87 868 l 174 868 l 174 347 l 87 347 m 174 868 l 174 955 l 260 955 l 260 868 l 174 868 m 434 868 l 434 955 l 521 955 l 521 868 l 434 868 m 260 955 l 260 1042 l 434 1042 l 434 955 l 260 955 z "},"È":{"ha":694,"x_min":87,"x_max":608,"o":"m 87 174 l 87 955 l 521 955 l 521 868 l 174 868 l 174 694 l 347 694 l 347 608 l 174 608 l 174 260 l 608 260 l 608 174 l 87 174 m 347 1042 l 347 1128 l 434 1128 l 434 1042 l 347 1042 m 174 1128 l 174 1215 l 347 1215 l 347 1128 l 174 1128 z "},"É":{"ha":694,"x_min":87,"x_max":608,"o":"m 87 174 l 87 955 l 521 955 l 521 868 l 174 868 l 174 694 l 347 694 l 347 608 l 174 608 l 174 260 l 608 260 l 608 174 l 87 174 m 174 1042 l 174 1128 l 260 1128 l 260 1042 l 174 1042 m 260 1128 l 260 1215 l 434 1215 l 434 1128 l 260 1128 z "},"Ê":{"ha":694,"x_min":87,"x_max":608,"o":"m 87 174 l 87 955 l 521 955 l 521 868 l 174 868 l 174 694 l 347 694 l 347 608 l 174 608 l 174 260 l 608 260 l 608 174 l 87 174 m 87 1042 l 87 1128 l 174 1128 l 174 1042 l 87 1042 m 347 1042 l 347 1128 l 434 1128 l 434 1042 l 347 1042 m 174 1128 l 174 1215 l 347 1215 l 347 1128 l 174 1128 z "},"Ë":{"ha":694,"x_min":87,"x_max":608,"o":"m 87 174 l 87 955 l 521 955 l 521 868 l 174 868 l 174 694 l 347 694 l 347 608 l 174 608 l 174 260 l 608 260 l 608 174 l 87 174 m 87 1128 l 87 1215 l 174 1215 l 174 1128 l 87 1128 m 347 1128 l 347 1215 l 434 1215 l 434 1128 l 347 1128 z "},"Ì":{"ha":260,"x_min":0,"x_max":260,"o":"m 87 174 l 87 1042 l 174 1042 l 174 174 l 87 174 m 174 1042 l 174 1128 l 260 1128 l 260 1042 l 174 1042 m 0 1128 l 0 1215 l 174 1215 l 174 1128 l 0 1128 z "},"Í":{"ha":260,"x_min":0,"x_max":260,"o":"m 87 174 l 87 1042 l 174 1042 l 174 174 l 87 174 m 0 1042 l 0 1128 l 87 1128 l 87 1042 l 0 1042 m 87 1128 l 87 1215 l 260 1215 l 260 1128 l 87 1128 z "},"Î":{"ha":347,"x_min":0,"x_max":347,"o":"m 87 174 l 87 1042 l 174 1042 l 174 174 l 87 174 m 0 1042 l 0 1128 l 87 1128 l 87 1042 l 0 1042 m 260 1042 l 260 1128 l 347 1128 l 347 1042 l 260 1042 m 87 1128 l 87 1215 l 260 1215 l 260 1128 l 87 1128 z "},"Ï":{"ha":260,"x_min":0,"x_max":260,"o":"m 87 174 l 87 1042 l 174 1042 l 174 174 l 87 174 m 0 1128 l 0 1215 l 87 1215 l 87 1128 l 0 1128 m 174 1128 l 174 1215 l 260 1215 l 260 1128 l 174 1128 z "},"Ð":{"ha":608,"x_min":0,"x_max":521,"o":"m 434 260 l 434 868 l 521 868 l 521 260 l 434 260 m 347 868 l 347 955 l 434 955 l 434 868 l 347 868 m 87 174 l 87 521 l 0 521 l 0 608 l 87 608 l 87 1042 l 347 1042 l 347 955 l 174 955 l 174 608 l 347 608 l 347 521 l 174 521 l 174 260 l 434 260 l 434 174 l 87 174 z "},"Ñ":{"ha":694,"x_min":87,"x_max":608,"o":"m 347 347 l 347 608 l 434 608 l 434 347 l 347 347 m 260 608 l 260 781 l 347 781 l 347 608 l 260 608 m 87 174 l 87 955 l 174 955 l 174 868 l 260 868 l 260 781 l 174 781 l 174 174 l 87 174 m 434 174 l 434 347 l 521 347 l 521 955 l 608 955 l 608 174 l 434 174 m 174 1042 l 174 1128 l 260 1128 l 260 1042 l 174 1042 m 434 1042 l 434 1128 l 521 1128 l 521 1042 l 434 1042 m 260 1128 l 260 1215 l 434 1215 l 434 1128 l 260 1128 m 521 1128 l 521 1215 l 608 1215 l 608 1128 l 521 1128 z "},"Ò":{"ha":694,"x_min":87,"x_max":608,"o":"m 260 174 l 260 260 l 434 260 l 434 174 l 260 174 m 174 260 l 174 347 l 260 347 l 260 260 l 174 260 m 434 260 l 434 347 l 521 347 l 521 260 l 434 260 m 87 347 l 87 781 l 174 781 l 174 347 l 87 347 m 521 347 l 521 781 l 608 781 l 608 347 l 521 347 m 174 781 l 174 868 l 260 868 l 260 781 l 174 781 m 434 781 l 434 868 l 521 868 l 521 781 l 434 781 m 260 868 l 260 955 l 434 955 l 434 868 l 260 868 m 260 1042 l 260 1128 l 347 1128 l 347 1042 l 260 1042 m 87 1128 l 87 1215 l 260 1215 l 260 1128 l 87 1128 z "},"Ó":{"ha":694,"x_min":87,"x_max":608,"o":"m 260 174 l 260 260 l 434 260 l 434 174 l 260 174 m 174 260 l 174 347 l 260 347 l 260 260 l 174 260 m 434 260 l 434 347 l 521 347 l 521 260 l 434 260 m 87 347 l 87 781 l 174 781 l 174 347 l 87 347 m 521 347 l 521 781 l 608 781 l 608 347 l 521 347 m 174 781 l 174 868 l 260 868 l 260 781 l 174 781 m 434 781 l 434 868 l 521 868 l 521 781 l 434 781 m 260 868 l 260 955 l 434 955 l 434 868 l 260 868 m 174 1042 l 174 1128 l 260 1128 l 260 1042 l 174 1042 m 260 1128 l 260 1215 l 434 1215 l 434 1128 l 260 1128 z "},"Ô":{"ha":694,"x_min":87,"x_max":608,"o":"m 260 174 l 260 260 l 434 260 l 434 174 l 260 174 m 174 260 l 174 347 l 260 347 l 260 260 l 174 260 m 434 260 l 434 347 l 521 347 l 521 260 l 434 260 m 87 347 l 87 781 l 174 781 l 174 347 l 87 347 m 521 347 l 521 781 l 608 781 l 608 347 l 521 347 m 174 781 l 174 868 l 260 868 l 260 781 l 174 781 m 434 781 l 434 868 l 521 868 l 521 781 l 434 781 m 260 868 l 260 955 l 434 955 l 434 868 l 260 868 m 174 1042 l 174 1128 l 260 1128 l 260 1042 l 174 1042 m 521 1042 l 521 1128 l 608 1128 l 608 1042 l 521 1042 m 260 1128 l 260 1215 l 521 1215 l 521 1128 l 260 1128 z "},"Õ":{"ha":694,"x_min":87,"x_max":608,"o":"m 260 174 l 260 260 l 434 260 l 434 174 l 260 174 m 174 260 l 174 347 l 260 347 l 260 260 l 174 260 m 434 260 l 434 347 l 521 347 l 521 260 l 434 260 m 87 347 l 87 781 l 174 781 l 174 347 l 87 347 m 521 347 l 521 781 l 608 781 l 608 347 l 521 347 m 174 781 l 174 868 l 260 868 l 260 781 l 174 781 m 434 781 l 434 868 l 521 868 l 521 781 l 434 781 m 260 868 l 260 955 l 434 955 l 434 868 l 260 868 m 87 1042 l 87 1128 l 174 1128 l 174 1042 l 87 1042 m 260 1042 l 260 1128 l 434 1128 l 434 1042 l 260 1042 m 174 1128 l 174 1215 l 260 1215 l 260 1128 l 174 1128 m 434 1128 l 434 1215 l 521 1215 l 521 1128 l 434 1128 z "},"Ö":{"ha":694,"x_min":87,"x_max":608,"o":"m 260 174 l 260 260 l 434 260 l 434 174 l 260 174 m 174 260 l 174 347 l 260 347 l 260 260 l 174 260 m 434 260 l 434 347 l 521 347 l 521 260 l 434 260 m 87 347 l 87 781 l 174 781 l 174 347 l 87 347 m 521 347 l 521 781 l 608 781 l 608 347 l 521 347 m 174 781 l 174 868 l 260 868 l 260 781 l 174 781 m 434 781 l 434 868 l 521 868 l 521 781 l 434 781 m 260 868 l 260 955 l 434 955 l 434 868 l 260 868 m 174 1042 l 174 1128 l 260 1128 l 260 1042 l 174 1042 m 434 1042 l 434 1128 l 521 1128 l 521 1042 l 434 1042 z "},"×":{"ha":608,"x_min":87,"x_max":521,"o":"m 87 347 l 87 434 l 174 434 l 174 347 l 87 347 m 434 347 l 434 434 l 521 434 l 521 347 l 434 347 m 174 434 l 174 521 l 260 521 l 260 434 l 174 434 m 347 434 l 347 521 l 434 521 l 434 434 l 347 434 m 260 521 l 260 608 l 347 608 l 347 521 l 260 521 m 174 608 l 174 694 l 260 694 l 260 608 l 174 608 m 347 608 l 347 694 l 434 694 l 434 608 l 347 608 m 87 694 l 87 781 l 174 781 l 174 694 l 87 694 m 434 694 l 434 781 l 521 781 l 521 694 l 434 694 z "},"Ø":{"ha":694,"x_min":87,"x_max":608,"o":"m 87 174 l 87 260 l 174 260 l 174 174 l 87 174 m 260 174 l 260 260 l 434 260 l 434 174 l 260 174 m 434 260 l 434 347 l 521 347 l 521 260 l 434 260 m 260 434 l 260 608 l 347 608 l 347 434 l 260 434 m 347 608 l 347 781 l 434 781 l 434 608 l 347 608 m 174 260 l 174 347 l 87 347 l 87 868 l 174 868 l 174 434 l 260 434 l 260 260 l 174 260 m 174 868 l 174 955 l 260 955 l 260 868 l 174 868 m 521 347 l 521 781 l 434 781 l 434 955 l 521 955 l 521 868 l 608 868 l 608 347 l 521 347 m 260 955 l 260 1042 l 434 1042 l 434 955 l 260 955 m 521 955 l 521 1042 l 608 1042 l 608 955 l 521 955 z "},"Ù":{"ha":694,"x_min":87,"x_max":608,"o":"m 260 174 l 260 260 l 434 260 l 434 174 l 260 174 m 174 260 l 174 347 l 260 347 l 260 260 l 174 260 m 87 347 l 87 955 l 174 955 l 174 347 l 87 347 m 521 174 l 521 260 l 434 260 l 434 347 l 521 347 l 521 955 l 608 955 l 608 174 l 521 174 m 347 1042 l 347 1128 l 434 1128 l 434 1042 l 347 1042 m 174 1128 l 174 1215 l 347 1215 l 347 1128 l 174 1128 z "},"Ú":{"ha":694,"x_min":87,"x_max":608,"o":"m 260 174 l 260 260 l 434 260 l 434 174 l 260 174 m 174 260 l 174 347 l 260 347 l 260 260 l 174 260 m 87 347 l 87 955 l 174 955 l 174 347 l 87 347 m 521 174 l 521 260 l 434 260 l 434 347 l 521 347 l 521 955 l 608 955 l 608 174 l 521 174 m 260 1042 l 260 1128 l 347 1128 l 347 1042 l 260 1042 m 347 1128 l 347 1215 l 521 1215 l 521 1128 l 347 1128 z "},"Û":{"ha":694,"x_min":87,"x_max":608,"o":"m 260 174 l 260 260 l 434 260 l 434 174 l 260 174 m 174 260 l 174 347 l 260 347 l 260 260 l 174 260 m 87 347 l 87 955 l 174 955 l 174 347 l 87 347 m 521 174 l 521 260 l 434 260 l 434 347 l 521 347 l 521 955 l 608 955 l 608 174 l 521 174 m 174 1042 l 174 1128 l 260 1128 l 260 1042 l 174 1042 m 434 1042 l 434 1128 l 521 1128 l 521 1042 l 434 1042 m 260 1128 l 260 1215 l 434 1215 l 434 1128 l 260 1128 z "},"Ü":{"ha":694,"x_min":87,"x_max":608,"o":"m 260 174 l 260 260 l 434 260 l 434 174 l 260 174 m 174 260 l 174 347 l 260 347 l 260 260 l 174 260 m 87 347 l 87 955 l 174 955 l 174 347 l 87 347 m 521 174 l 521 260 l 434 260 l 434 347 l 521 347 l 521 955 l 608 955 l 608 174 l 521 174 m 174 1042 l 174 1128 l 260 1128 l 260 1042 l 174 1042 m 434 1042 l 434 1128 l 521 1128 l 521 1042 l 434 1042 z "},"Ý":{"ha":608,"x_min":87,"x_max":521,"o":"m 260 174 l 260 694 l 347 694 l 347 174 l 260 174 m 174 694 l 174 781 l 260 781 l 260 694 l 174 694 m 347 694 l 347 781 l 434 781 l 434 694 l 347 694 m 87 781 l 87 955 l 174 955 l 174 781 l 87 781 m 434 781 l 434 955 l 521 955 l 521 781 l 434 781 m 174 1042 l 174 1128 l 260 1128 l 260 1042 l 174 1042 m 260 1128 l 260 1215 l 434 1215 l 434 1128 l 260 1128 z "},"Þ":{"ha":608,"x_min":0,"x_max":521,"o":"m 434 434 l 434 781 l 521 781 l 521 434 l 434 434 m 0 174 l 0 260 l 87 260 l 87 955 l 0 955 l 0 1042 l 260 1042 l 260 955 l 174 955 l 174 868 l 434 868 l 434 781 l 174 781 l 174 434 l 434 434 l 434 347 l 174 347 l 174 260 l 260 260 l 260 174 l 0 174 z "},"ß":{"ha":608,"x_min":0,"x_max":521,"o":"m 434 260 l 434 608 l 521 608 l 521 260 l 434 260 m 0 174 l 0 260 l 87 260 l 87 955 l 174 955 l 174 694 l 434 694 l 434 608 l 174 608 l 174 260 l 434 260 l 434 174 l 0 174 m 434 694 l 434 955 l 521 955 l 521 694 l 434 694 m 174 955 l 174 1042 l 434 1042 l 434 955 l 174 955 z "},"à":{"ha":608,"x_min":87,"x_max":521,"o":"m 87 260 l 87 434 l 174 434 l 174 260 l 87 260 m 87 521 l 87 608 l 174 608 l 174 521 l 87 521 m 174 174 l 174 260 l 434 260 l 434 434 l 174 434 l 174 521 l 434 521 l 434 608 l 521 608 l 521 174 l 174 174 m 174 608 l 174 694 l 434 694 l 434 608 l 174 608 m 347 781 l 347 868 l 434 868 l 434 781 l 347 781 m 174 868 l 174 955 l 347 955 l 347 868 l 174 868 z "},"á":{"ha":608,"x_min":87,"x_max":521,"o":"m 87 260 l 87 434 l 174 434 l 174 260 l 87 260 m 87 521 l 87 608 l 174 608 l 174 521 l 87 521 m 174 174 l 174 260 l 434 260 l 434 434 l 174 434 l 174 521 l 434 521 l 434 608 l 521 608 l 521 174 l 174 174 m 174 608 l 174 694 l 434 694 l 434 608 l 174 608 m 174 781 l 174 868 l 260 868 l 260 781 l 174 781 m 260 868 l 260 955 l 434 955 l 434 868 l 260 868 z "},"â":{"ha":608,"x_min":87,"x_max":521,"o":"m 87 260 l 87 434 l 174 434 l 174 260 l 87 260 m 87 521 l 87 608 l 174 608 l 174 521 l 87 521 m 174 174 l 174 260 l 434 260 l 434 434 l 174 434 l 174 521 l 434 521 l 434 608 l 521 608 l 521 174 l 174 174 m 174 608 l 174 694 l 434 694 l 434 608 l 174 608 m 87 781 l 87 868 l 174 868 l 174 781 l 87 781 m 434 781 l 434 868 l 521 868 l 521 781 l 434 781 m 174 868 l 174 955 l 434 955 l 434 868 l 174 868 z "},"ã":{"ha":608,"x_min":87,"x_max":521,"o":"m 87 260 l 87 434 l 174 434 l 174 260 l 87 260 m 87 521 l 87 608 l 174 608 l 174 521 l 87 521 m 174 174 l 174 260 l 434 260 l 434 434 l 174 434 l 174 521 l 434 521 l 434 608 l 521 608 l 521 174 l 174 174 m 174 608 l 174 694 l 434 694 l 434 608 l 174 608 m 87 781 l 87 868 l 174 868 l 174 781 l 87 781 m 260 781 l 260 868 l 434 868 l 434 781 l 260 781 m 174 868 l 174 955 l 260 955 l 260 868 l 174 868 m 434 868 l 434 955 l 521 955 l 521 868 l 434 868 z "},"ä":{"ha":608,"x_min":87,"x_max":521,"o":"m 87 260 l 87 434 l 174 434 l 174 260 l 87 260 m 87 521 l 87 608 l 174 608 l 174 521 l 87 521 m 174 174 l 174 260 l 434 260 l 434 434 l 174 434 l 174 521 l 434 521 l 434 608 l 521 608 l 521 174 l 174 174 m 174 608 l 174 694 l 434 694 l 434 608 l 174 608 m 174 781 l 174 868 l 260 868 l 260 781 l 174 781 m 347 781 l 347 868 l 434 868 l 434 781 l 347 781 z "},"å":{"ha":608,"x_min":87,"x_max":521,"o":"m 87 260 l 87 434 l 174 434 l 174 260 l 87 260 m 87 521 l 87 608 l 174 608 l 174 521 l 87 521 m 174 174 l 174 260 l 434 260 l 434 434 l 174 434 l 174 521 l 434 521 l 434 608 l 521 608 l 521 174 l 174 174 m 174 608 l 174 694 l 434 694 l 434 608 l 174 608 m 260 781 l 260 868 l 347 868 l 347 781 l 260 781 m 174 868 l 174 955 l 260 955 l 260 868 l 174 868 m 347 868 l 347 955 l 434 955 l 434 868 l 347 868 m 260 955 l 260 1042 l 347 1042 l 347 955 l 260 955 z "},"æ":{"ha":955,"x_min":87,"x_max":868,"o":"m 174 174 l 174 260 l 434 260 l 434 174 l 174 174 m 521 174 l 521 260 l 868 260 l 868 174 l 521 174 m 87 260 l 87 434 l 174 434 l 174 260 l 87 260 m 87 521 l 87 608 l 174 608 l 174 521 l 87 521 m 434 260 l 434 434 l 174 434 l 174 521 l 434 521 l 434 608 l 521 608 l 521 434 l 781 434 l 781 347 l 521 347 l 521 260 l 434 260 m 781 434 l 781 608 l 868 608 l 868 434 l 781 434 m 174 608 l 174 694 l 434 694 l 434 608 l 174 608 m 521 608 l 521 694 l 781 694 l 781 608 l 521 608 z "},"ç":{"ha":521,"x_min":87,"x_max":434,"o":"m 174 -87 l 174 0 l 347 0 l 347 -87 l 174 -87 m 347 0 l 347 87 l 434 87 l 434 0 l 347 0 m 260 87 l 260 174 l 174 174 l 174 260 l 434 260 l 434 174 l 347 174 l 347 87 l 260 87 m 87 260 l 87 608 l 174 608 l 174 260 l 87 260 m 174 608 l 174 694 l 434 694 l 434 608 l 174 608 z "},"è":{"ha":608,"x_min":87,"x_max":521,"o":"m 174 174 l 174 260 l 521 260 l 521 174 l 174 174 m 87 260 l 87 608 l 174 608 l 174 434 l 434 434 l 434 347 l 174 347 l 174 260 l 87 260 m 434 434 l 434 608 l 521 608 l 521 434 l 434 434 m 174 608 l 174 694 l 434 694 l 434 608 l 174 608 m 347 781 l 347 868 l 434 868 l 434 781 l 347 781 m 174 868 l 174 955 l 347 955 l 347 868 l 174 868 z "},"é":{"ha":608,"x_min":87,"x_max":521,"o":"m 174 174 l 174 260 l 521 260 l 521 174 l 174 174 m 87 260 l 87 608 l 174 608 l 174 434 l 434 434 l 434 347 l 174 347 l 174 260 l 87 260 m 434 434 l 434 608 l 521 608 l 521 434 l 434 434 m 174 608 l 174 694 l 434 694 l 434 608 l 174 608 m 174 781 l 174 868 l 260 868 l 260 781 l 174 781 m 260 868 l 260 955 l 434 955 l 434 868 l 260 868 z "},"ê":{"ha":608,"x_min":87,"x_max":521,"o":"m 174 174 l 174 260 l 521 260 l 521 174 l 174 174 m 87 260 l 87 608 l 174 608 l 174 434 l 434 434 l 434 347 l 174 347 l 174 260 l 87 260 m 434 434 l 434 608 l 521 608 l 521 434 l 434 434 m 174 608 l 174 694 l 434 694 l 434 608 l 174 608 m 87 781 l 87 868 l 174 868 l 174 781 l 87 781 m 434 781 l 434 868 l 521 868 l 521 781 l 434 781 m 174 868 l 174 955 l 434 955 l 434 868 l 174 868 z "},"ë":{"ha":608,"x_min":87,"x_max":521,"o":"m 174 174 l 174 260 l 521 260 l 521 174 l 174 174 m 87 260 l 87 608 l 174 608 l 174 434 l 434 434 l 434 347 l 174 347 l 174 260 l 87 260 m 434 434 l 434 608 l 521 608 l 521 434 l 434 434 m 174 608 l 174 694 l 434 694 l 434 608 l 174 608 m 174 781 l 174 868 l 260 868 l 260 781 l 174 781 m 347 781 l 347 868 l 434 868 l 434 781 l 347 781 z "},"ì":{"ha":260,"x_min":0,"x_max":260,"o":"m 87 174 l 87 521 l 174 521 l 174 174 l 87 174 m 174 608 l 174 694 l 260 694 l 260 608 l 174 608 m 0 694 l 0 781 l 174 781 l 174 694 l 0 694 z "},"í":{"ha":260,"x_min":0,"x_max":260,"o":"m 87 174 l 87 521 l 174 521 l 174 174 l 87 174 m 0 608 l 0 694 l 87 694 l 87 608 l 0 608 m 87 694 l 87 781 l 260 781 l 260 694 l 87 694 z "},"î":{"ha":347,"x_min":0,"x_max":347,"o":"m 87 174 l 87 521 l 174 521 l 174 174 l 87 174 m 0 608 l 0 694 l 87 694 l 87 608 l 0 608 m 260 608 l 260 694 l 347 694 l 347 608 l 260 608 m 87 694 l 87 781 l 260 781 l 260 694 l 87 694 z "},"ï":{"ha":260,"x_min":0,"x_max":260,"o":"m 87 174 l 87 521 l 174 521 l 174 174 l 87 174 m 0 608 l 0 694 l 87 694 l 87 608 l 0 608 m 174 608 l 174 694 l 260 694 l 260 608 l 174 608 z "},"ð":{"ha":608,"x_min":87,"x_max":521,"o":"m 174 174 l 174 260 l 434 260 l 434 174 l 174 174 m 87 260 l 87 608 l 174 608 l 174 260 l 87 260 m 434 260 l 434 608 l 521 608 l 521 260 l 434 260 m 174 608 l 174 694 l 434 694 l 434 608 l 174 608 m 174 781 l 174 868 l 434 868 l 434 781 l 174 781 m 87 868 l 87 955 l 174 955 l 174 868 l 87 868 m 434 868 l 434 955 l 521 955 l 521 868 l 434 868 z "},"ñ":{"ha":608,"x_min":87,"x_max":521,"o":"m 434 174 l 434 608 l 521 608 l 521 174 l 434 174 m 87 174 l 87 694 l 174 694 l 174 608 l 260 608 l 260 521 l 174 521 l 174 174 l 87 174 m 260 608 l 260 694 l 434 694 l 434 608 l 260 608 m 87 781 l 87 868 l 174 868 l 174 781 l 87 781 m 260 781 l 260 868 l 434 868 l 434 781 l 260 781 m 174 868 l 174 955 l 260 955 l 260 868 l 174 868 m 434 868 l 434 955 l 521 955 l 521 868 l 434 868 z "},"ò":{"ha":608,"x_min":87,"x_max":521,"o":"m 174 174 l 174 260 l 434 260 l 434 174 l 174 174 m 87 260 l 87 608 l 174 608 l 174 260 l 87 260 m 434 260 l 434 608 l 521 608 l 521 260 l 434 260 m 174 608 l 174 694 l 434 694 l 434 608 l 174 608 m 347 781 l 347 868 l 434 868 l 434 781 l 347 781 m 174 868 l 174 955 l 347 955 l 347 868 l 174 868 z "},"ó":{"ha":608,"x_min":87,"x_max":521,"o":"m 174 174 l 174 260 l 434 260 l 434 174 l 174 174 m 87 260 l 87 608 l 174 608 l 174 260 l 87 260 m 434 260 l 434 608 l 521 608 l 521 260 l 434 260 m 174 608 l 174 694 l 434 694 l 434 608 l 174 608 m 174 781 l 174 868 l 260 868 l 260 781 l 174 781 m 260 868 l 260 955 l 434 955 l 434 868 l 260 868 z "},"ô":{"ha":608,"x_min":87,"x_max":521,"o":"m 174 174 l 174 260 l 434 260 l 434 174 l 174 174 m 87 260 l 87 608 l 174 608 l 174 260 l 87 260 m 434 260 l 434 608 l 521 608 l 521 260 l 434 260 m 174 608 l 174 694 l 434 694 l 434 608 l 174 608 m 87 781 l 87 868 l 174 868 l 174 781 l 87 781 m 434 781 l 434 868 l 521 868 l 521 781 l 434 781 m 174 868 l 174 955 l 434 955 l 434 868 l 174 868 z "},"õ":{"ha":608,"x_min":87,"x_max":521,"o":"m 174 174 l 174 260 l 434 260 l 434 174 l 174 174 m 87 260 l 87 608 l 174 608 l 174 260 l 87 260 m 434 260 l 434 608 l 521 608 l 521 260 l 434 260 m 174 608 l 174 694 l 434 694 l 434 608 l 174 608 m 87 781 l 87 868 l 174 868 l 174 781 l 87 781 m 260 781 l 260 868 l 434 868 l 434 781 l 260 781 m 174 868 l 174 955 l 260 955 l 260 868 l 174 868 m 434 868 l 434 955 l 521 955 l 521 868 l 434 868 z "},"ö":{"ha":608,"x_min":87,"x_max":521,"o":"m 174 174 l 174 260 l 434 260 l 434 174 l 174 174 m 87 260 l 87 608 l 174 608 l 174 260 l 87 260 m 434 260 l 434 608 l 521 608 l 521 260 l 434 260 m 174 608 l 174 694 l 434 694 l 434 608 l 174 608 m 174 781 l 174 868 l 260 868 l 260 781 l 174 781 m 347 781 l 347 868 l 434 868 l 434 781 l 347 781 z "},"÷":{"ha":781,"x_min":87,"x_max":694,"o":"m 347 347 l 347 434 l 434 434 l 434 347 l 347 347 m 87 521 l 87 608 l 694 608 l 694 521 l 87 521 m 347 694 l 347 781 l 434 781 l 434 694 l 347 694 z "},"ø":{"ha":694,"x_min":0,"x_max":608,"o":"m 0 87 l 0 174 l 87 174 l 87 87 l 0 87 m 260 347 l 260 521 l 347 521 l 347 347 l 260 347 m 87 174 l 87 608 l 174 608 l 174 347 l 260 347 l 260 260 l 434 260 l 434 174 l 87 174 m 434 260 l 434 521 l 347 521 l 347 608 l 174 608 l 174 694 l 521 694 l 521 260 l 434 260 m 521 694 l 521 781 l 608 781 l 608 694 l 521 694 z "},"ù":{"ha":608,"x_min":87,"x_max":521,"o":"m 174 174 l 174 260 l 434 260 l 434 174 l 174 174 m 87 260 l 87 694 l 174 694 l 174 260 l 87 260 m 434 260 l 434 694 l 521 694 l 521 260 l 434 260 m 347 781 l 347 868 l 434 868 l 434 781 l 347 781 m 174 868 l 174 955 l 347 955 l 347 868 l 174 868 z "},"ú":{"ha":608,"x_min":87,"x_max":521,"o":"m 174 174 l 174 260 l 434 260 l 434 174 l 174 174 m 87 260 l 87 694 l 174 694 l 174 260 l 87 260 m 434 260 l 434 694 l 521 694 l 521 260 l 434 260 m 174 781 l 174 868 l 260 868 l 260 781 l 174 781 m 260 868 l 260 955 l 434 955 l 434 868 l 260 868 z "},"û":{"ha":608,"x_min":87,"x_max":521,"o":"m 174 174 l 174 260 l 434 260 l 434 174 l 174 174 m 87 260 l 87 694 l 174 694 l 174 260 l 87 260 m 434 260 l 434 694 l 521 694 l 521 260 l 434 260 m 87 781 l 87 868 l 174 868 l 174 781 l 87 781 m 434 781 l 434 868 l 521 868 l 521 781 l 434 781 m 174 868 l 174 955 l 434 955 l 434 868 l 174 868 z "},"ü":{"ha":608,"x_min":87,"x_max":521,"o":"m 174 174 l 174 260 l 434 260 l 434 174 l 174 174 m 87 260 l 87 694 l 174 694 l 174 260 l 87 260 m 434 260 l 434 694 l 521 694 l 521 260 l 434 260 m 174 781 l 174 868 l 260 868 l 260 781 l 174 781 m 347 781 l 347 868 l 434 868 l 434 781 l 347 781 z "},"ý":{"ha":608,"x_min":87,"x_max":521,"o":"m 174 -174 l 174 -87 l 347 -87 l 347 -174 l 174 -174 m 87 -87 l 87 0 l 174 0 l 174 -87 l 87 -87 m 347 -87 l 347 0 l 434 0 l 434 -87 l 347 -87 m 87 347 l 87 694 l 174 694 l 174 347 l 87 347 m 434 0 l 434 260 l 174 260 l 174 347 l 434 347 l 434 694 l 521 694 l 521 0 l 434 0 m 174 781 l 174 868 l 260 868 l 260 781 l 174 781 m 260 868 l 260 955 l 434 955 l 434 868 l 260 868 z "},"þ":{"ha":521,"x_min":0,"x_max":434,"o":"m 347 434 l 347 608 l 434 608 l 434 434 l 347 434 m 0 174 l 0 260 l 87 260 l 87 781 l 0 781 l 0 868 l 174 868 l 174 694 l 347 694 l 347 608 l 174 608 l 174 434 l 347 434 l 347 347 l 174 347 l 174 174 l 0 174 z "},"ÿ":{"ha":521,"x_min":87,"x_max":434,"o":"m 174 174 l 174 260 l 347 260 l 347 174 l 174 174 m 87 260 l 87 347 l 174 347 l 174 260 l 87 260 m 87 608 l 87 868 l 174 868 l 174 608 l 87 608 m 347 260 l 347 521 l 174 521 l 174 608 l 347 608 l 347 868 l 434 868 l 434 260 l 347 260 m 174 1042 l 174 1128 l 260 1128 l 260 1042 l 174 1042 m 347 1042 l 347 1128 l 434 1128 l 434 1042 l 347 1042 z "},"Œ":{"ha":955,"x_min":87,"x_max":868,"o":"m 174 260 l 174 347 l 260 347 l 260 260 l 174 260 m 87 347 l 87 781 l 174 781 l 174 347 l 87 347 m 174 781 l 174 868 l 260 868 l 260 781 l 174 781 m 260 174 l 260 260 l 521 260 l 521 868 l 260 868 l 260 955 l 868 955 l 868 868 l 608 868 l 608 608 l 868 608 l 868 521 l 608 521 l 608 260 l 868 260 l 868 174 l 260 174 z "},"œ":{"ha":781,"x_min":87,"x_max":694,"o":"m 174 174 l 174 260 l 347 260 l 347 174 l 174 174 m 434 174 l 434 260 l 694 260 l 694 174 l 434 174 m 87 260 l 87 608 l 174 608 l 174 260 l 87 260 m 347 260 l 347 608 l 434 608 l 434 521 l 608 521 l 608 608 l 694 608 l 694 434 l 434 434 l 434 260 l 347 260 m 174 608 l 174 694 l 347 694 l 347 608 l 174 608 m 434 608 l 434 694 l 608 694 l 608 608 l 434 608 z "},"Ÿ":{"ha":608,"x_min":87,"x_max":521,"o":"m 260 174 l 260 521 l 347 521 l 347 174 l 260 174 m 174 521 l 174 694 l 260 694 l 260 521 l 174 521 m 347 521 l 347 694 l 434 694 l 434 521 l 347 521 m 87 694 l 87 781 l 174 781 l 174 694 l 87 694 m 434 694 l 434 781 l 521 781 l 521 694 l 434 694 m 174 868 l 174 955 l 260 955 l 260 868 l 174 868 m 347 868 l 347 955 l 434 955 l 434 868 l 347 868 z "},"ƀ":{"ha":781,"x_min":87,"x_max":694,"o":"m 347 260 l 347 521 l 87 521 l 87 608 l 347 608 l 347 868 l 434 868 l 434 608 l 694 608 l 694 521 l 434 521 l 434 260 l 347 260 z "},"Ɓ":{"ha":781,"x_min":87,"x_max":694,"o":"m 260 260 l 260 521 l 87 521 l 87 608 l 260 608 l 260 868 l 347 868 l 347 608 l 434 608 l 434 868 l 521 868 l 521 608 l 694 608 l 694 521 l 521 521 l 521 260 l 434 260 l 434 521 l 347 521 l 347 260 l 260 260 z "},"Ƃ":{"ha":781,"x_min":87,"x_max":694,"o":"m 174 260 l 174 521 l 87 521 l 87 608 l 174 608 l 174 868 l 260 868 l 260 608 l 347 608 l 347 868 l 434 868 l 434 608 l 521 608 l 521 868 l 608 868 l 608 608 l 694 608 l 694 521 l 608 521 l 608 260 l 521 260 l 521 521 l 434 521 l 434 260 l 347 260 l 347 521 l 260 521 l 260 260 l 174 260 z "},"ƃ":{"ha":781,"x_min":87,"x_max":694,"o":"m 347 260 l 347 434 l 87 434 l 87 521 l 347 521 l 347 608 l 87 608 l 87 694 l 347 694 l 347 868 l 434 868 l 434 694 l 694 694 l 694 608 l 434 608 l 434 521 l 694 521 l 694 434 l 434 434 l 434 260 l 347 260 z "},"Ƅ":{"ha":781,"x_min":87,"x_max":694,"o":"m 434 521 l 434 608 l 347 608 l 347 521 l 434 521 m 260 260 l 260 434 l 87 434 l 87 521 l 260 521 l 260 608 l 87 608 l 87 694 l 260 694 l 260 868 l 347 868 l 347 694 l 434 694 l 434 868 l 521 868 l 521 694 l 694 694 l 694 608 l 521 608 l 521 521 l 694 521 l 694 434 l 521 434 l 521 260 l 434 260 l 434 434 l 347 434 l 347 260 l 260 260 z "},"ƅ":{"ha":781,"x_min":87,"x_max":694,"o":"m 347 521 l 347 608 l 260 608 l 260 521 l 347 521 m 521 521 l 521 608 l 434 608 l 434 521 l 521 521 m 174 260 l 174 434 l 87 434 l 87 521 l 174 521 l 174 608 l 87 608 l 87 694 l 174 694 l 174 868 l 260 868 l 260 694 l 347 694 l 347 868 l 434 868 l 434 694 l 521 694 l 521 868 l 608 868 l 608 694 l 694 694 l 694 608 l 608 608 l 608 521 l 694 521 l 694 434 l 608 434 l 608 260 l 521 260 l 521 434 l 434 434 l 434 260 l 347 260 l 347 434 l 260 434 l 260 260 l 174 260 z "},"Ɔ":{"ha":781,"x_min":87,"x_max":694,"o":"m 347 260 l 347 347 l 87 347 l 87 434 l 347 434 l 347 521 l 87 521 l 87 608 l 347 608 l 347 694 l 87 694 l 87 781 l 347 781 l 347 868 l 434 868 l 434 781 l 694 781 l 694 694 l 434 694 l 434 608 l 694 608 l 694 521 l 434 521 l 434 434 l 694 434 l 694 347 l 434 347 l 434 260 l 347 260 z "},"Ƈ":{"ha":781,"x_min":87,"x_max":694,"o":"m 434 434 l 434 521 l 347 521 l 347 434 l 434 434 m 434 608 l 434 694 l 347 694 l 347 608 l 434 608 m 260 260 l 260 347 l 87 347 l 87 434 l 260 434 l 260 521 l 87 521 l 87 608 l 260 608 l 260 694 l 87 694 l 87 781 l 260 781 l 260 868 l 347 868 l 347 781 l 434 781 l 434 868 l 521 868 l 521 781 l 694 781 l 694 694 l 521 694 l 521 608 l 694 608 l 694 521 l 521 521 l 521 434 l 694 434 l 694 347 l 521 347 l 521 260 l 434 260 l 434 347 l 347 347 l 347 260 l 260 260 z "},"ƈ":{"ha":781,"x_min":87,"x_max":694,"o":"m 347 434 l 347 521 l 260 521 l 260 434 l 347 434 m 521 434 l 521 521 l 434 521 l 434 434 l 521 434 m 347 608 l 347 694 l 260 694 l 260 608 l 347 608 m 521 608 l 521 694 l 434 694 l 434 608 l 521 608 m 174 260 l 174 347 l 87 347 l 87 434 l 174 434 l 174 521 l 87 521 l 87 608 l 174 608 l 174 694 l 87 694 l 87 781 l 174 781 l 174 868 l 260 868 l 260 781 l 347 781 l 347 868 l 434 868 l 434 781 l 521 781 l 521 868 l 608 868 l 608 781 l 694 781 l 694 694 l 608 694 l 608 608 l 694 608 l 694 521 l 608 521 l 608 434 l 694 434 l 694 347 l 608 347 l 608 260 l 521 260 l 521 347 l 434 347 l 434 260 l 347 260 l 347 347 l 260 347 l 260 260 l 174 260 z "},"Ɖ":{"ha":781,"x_min":87,"x_max":694,"o":"m 87 260 l 87 347 l 174 347 l 174 260 l 87 260 m 608 260 l 608 347 l 694 347 l 694 260 l 608 260 m 174 347 l 174 434 l 260 434 l 260 347 l 174 347 m 521 347 l 521 434 l 608 434 l 608 347 l 521 347 m 174 694 l 174 781 l 260 781 l 260 694 l 174 694 m 521 694 l 521 781 l 608 781 l 608 694 l 521 694 m 87 781 l 87 868 l 174 868 l 174 781 l 87 781 m 347 260 l 347 434 l 260 434 l 260 521 l 347 521 l 347 608 l 260 608 l 260 694 l 347 694 l 347 868 l 434 868 l 434 694 l 521 694 l 521 608 l 434 608 l 434 521 l 521 521 l 521 434 l 434 434 l 434 260 l 347 260 m 608 781 l 608 868 l 694 868 l 694 781 l 608 781 z "},"Ɗ":{"ha":781,"x_min":87,"x_max":694,"o":"m 260 434 l 260 521 l 347 521 l 347 434 l 260 434 m 434 434 l 434 521 l 521 521 l 521 434 l 434 434 m 347 521 l 347 608 l 434 608 l 434 521 l 347 521 m 260 608 l 260 694 l 347 694 l 347 608 l 260 608 m 434 608 l 434 694 l 521 694 l 521 608 l 434 608 m 87 260 l 87 868 l 174 868 l 174 781 l 260 781 l 260 694 l 174 694 l 174 434 l 260 434 l 260 347 l 174 347 l 174 260 l 87 260 m 608 260 l 608 347 l 521 347 l 521 434 l 608 434 l 608 694 l 521 694 l 521 781 l 608 781 l 608 868 l 694 868 l 694 260 l 608 260 z "},"Ƌ":{"ha":781,"x_min":87,"x_max":694,"o":"m 87 260 l 87 868 l 174 868 l 174 781 l 260 781 l 260 694 l 174 694 l 174 434 l 260 434 l 260 347 l 174 347 l 174 260 l 87 260 m 347 260 l 347 434 l 260 434 l 260 521 l 347 521 l 347 608 l 260 608 l 260 694 l 347 694 l 347 868 l 434 868 l 434 694 l 521 694 l 521 608 l 434 608 l 434 521 l 521 521 l 521 434 l 434 434 l 434 260 l 347 260 m 608 260 l 608 347 l 521 347 l 521 434 l 608 434 l 608 694 l 521 694 l 521 781 l 608 781 l 608 868 l 694 868 l 694 260 l 608 260 z "},"—":{"ha":608,"x_min":0,"x_max":608,"o":"m 0 521 l 0 608 l 608 608 l 608 521 l 0 521 z "},"…":{"ha":608,"x_min":87,"x_max":521,"o":"m 87 174 l 87 260 l 174 260 l 174 174 l 87 174 m 260 174 l 260 260 l 347 260 l 347 174 l 260 174 m 434 174 l 434 260 l 521 260 l 521 174 l 434 174 z "},"€":{"ha":868,"x_min":87,"x_max":781,"o":"m 260 174 l 260 260 l 174 260 l 174 434 l 87 434 l 87 521 l 174 521 l 174 608 l 87 608 l 87 694 l 174 694 l 174 868 l 260 868 l 260 955 l 694 955 l 694 868 l 781 868 l 781 781 l 608 781 l 608 868 l 347 868 l 347 781 l 260 781 l 260 694 l 694 694 l 694 608 l 260 608 l 260 521 l 608 521 l 608 434 l 260 434 l 260 347 l 347 347 l 347 260 l 608 260 l 608 347 l 781 347 l 781 260 l 694 260 l 694 174 l 260 174 z "},"™":{"ha":1128,"x_min":87,"x_max":1042,"o":"m 174 434 l 174 521 l 434 521 l 434 434 l 174 434 m 694 434 l 694 521 l 955 521 l 955 434 l 694 434 m 434 521 l 434 608 l 521 608 l 521 521 l 434 521 m 608 521 l 608 608 l 694 608 l 694 521 l 608 521 m 521 608 l 521 694 l 608 694 l 608 608 l 521 608 m 87 521 l 87 781 l 174 781 l 174 521 l 87 521 m 434 694 l 434 781 l 521 781 l 521 694 l 434 694 m 608 694 l 608 781 l 694 781 l 694 694 l 608 694 m 955 521 l 955 781 l 1042 781 l 1042 521 l 955 521 m 174 781 l 174 868 l 434 868 l 434 781 l 174 781 m 694 781 l 694 868 l 955 868 l 955 781 l 694 781 z "}}}
